0
SECTION
2
HEADER
9
$INSUNITS
70
4
9
$ACADVER
1
AC1014
9
$HANDSEED
5
FFFF
0
ENDSEC
0
SECTION
2
TABLES
0
TABLE
2
VPORT
5
8
100
AcDbSymbolTable
0
ENDTAB
0
TABLE
2
LTYPE
5
5
100
AcDbSymbolTable
0
LTYPE
5
14
100
AcDbSymbolTableRecord
100
AcDbLinetypeTableRecord
2
BYBLOCK
70
0
0
LTYPE
5
15
100
AcDbSymbolTableRecord
100
AcDbLinetypeTableRecord
2
BYLAYER
70
0
0
LTYPE
5
16
100
AcDbSymbolTableRecord
100
AcDbLinetypeTableRecord
2
DASHED
70
0
3
Dashed __ __ __ __ __ __ __ __ __ __ __ __ __ _
72
65
73
2
40
0.75
49
0.5
74
0
49
-0.25
74
0
0
ENDTAB
0
TABLE
2
LAYER
5
2
100
AcDbSymbolTable
70
2
0
LAYER
5
50
100
AcDbSymbolTableRecord
100
AcDbLayerTableRecord
2
0
70
0
62
7
6
CONTINUOUS
0
ENDTAB
0
TABLE
2
STYLE
5
3
100
AcDbSymbolTable
70
1
0
STYLE
5
11
100
AcDbSymbolTableRecord
100
AcDbTextStyleTableRecord
2
STANDARD
70
0
0
ENDTAB
0
TABLE
2
VIEW
5
6
100
AcDbSymbolTable
70
0
0
ENDTAB
0
TABLE
2
UCS
5
7
100
AcDbSymbolTable
70
0
0
ENDTAB
0
TABLE
2
APPID
5
9
100
AcDbSymbolTable
70
2
0
APPID
5
12
100
AcDbSymbolTableRecord
100
AcDbRegAppTableRecord
2
ACAD
70
0
0
ENDTAB
0
TABLE
2
DIMSTYLE
5
A
100
AcDbSymbolTable
70
1
0
ENDTAB
0
TABLE
2
BLOCK_RECORD
5
1
100
AcDbSymbolTable
70
1
0
BLOCK_RECORD
5
1F
100
AcDbSymbolTableRecord
100
AcDbBlockTableRecord
2
*MODEL_SPACE
0
BLOCK_RECORD
5
1B
100
AcDbSymbolTableRecord
100
AcDbBlockTableRecord
2
*PAPER_SPACE
0
ENDTAB
0
ENDSEC
0
SECTION
2
BLOCKS
0
BLOCK
5
20
100
AcDbEntity
100
AcDbBlockBegin
2
*MODEL_SPACE
0
ENDBLK
5
21
100
AcDbEntity
100
AcDbBlockEnd
0
BLOCK
5
1C
100
AcDbEntity
100
AcDbBlockBegin
2
*PAPER_SPACE
0
ENDBLK
5
1D
100
AcDbEntity
100
AcDbBlockEnd
0
ENDSEC
0
SECTION
2
ENTITIES
0
LWPOLYLINE
5
100
100
AcDbEntity
8
OUTER_PROFILES
100
AcDbPolyline
90
68
70
1
43
0.0
10
-445.99999999999102
20
-8.0000000000004512
10
-437.99999999999102
20
-7.9999999999999361
10
-437.99999999999108
20
8.8817841970012523e-15
10
-372.99999999998602
20
-3.0198066269804258e-13
10
-372.99999999998579
20
-8.0000000000001403
10
-364.99999999998494
20
-8.0000000000004867
10
-364.99999999998545
20
8.8817841970012523e-15
10
-299.99999999998602
20
-2.1316282072803006e-13
10
-299.99999999998585
20
-8.0000000000003268
10
-291.99999999998579
20
-8.0000000000000249
10
-291.99999999998602
20
0
10
-226.99999999998602
20
-2.1316282072803006e-13
10
-226.99999999998582
20
-8.000000000000238
10
-218.99999999998579
20
-8.0000000000000249
10
-218.99999999998596
20
8.8817841970012523e-15
10
-154.00000000000048
20
-3.2862601528904634e-13
10
-154.00000000000034
20
-8.0000000000003535
10
-146.00000000000037
20
-8.0000000000001492
10
-146.00000000000051
20
8.8817841970012523e-15
10
-81.000000000000654
20
-3.8191672047105385e-13
10
-81.000000000000441
20
-8.0000000000004068
10
-73.000000000000398
20
-8.0000000000002114
10
-73.000000000000611
20
8.8817841970012523e-15
10
-8.0000000000002558
20
-1.865174681370263e-13
10
-8.0000000000001137
20
-8.0000000000004068
10
1.4210854715202004e-13
20
-8.0000000000002203
10
0
20
0
10
65.000000000019114
20
-3.1974423109204508e-13
10
65.000000000019327
20
-8.0000000000005311
10
73.000000000019583
20
-8.0000000000003357
10
73.000000000019369
20
8.8817841970012523e-15
10
112.54999303636865
20
1.7763568394002505e-14
10
112.54999303636865
20
46.399998962899929
10
73.00000000001809
20
46.399998962900156
10
73.000000000017877
20
54.399998962900156
10
65.000000000017906
20
54.399998962899964
10
65.000000000018048
20
46.399998962899936
10
-1.2079226507921703e-12
20
46.399998962900099
10
-1.4210854715202004e-12
20
54.399998962900099
10
-8.0000000000014637
20
54.3999989628999
10
-8.0000000000012506
20
46.399998962899943
10
-73.000000000001748
20
46.399998962900177
10
-73.000000000001961
20
54.39999896290022
10
-81.000000000001933
20
54.399998962900028
10
-81.000000000001791
20
46.399998962899957
10
-146.00000000000179
20
46.399998962900398
10
-146.00000000000193
20
54.39999896290022
10
-154.00000000000205
20
54.399998962900028
10
-154.0000000000019
20
46.399998962899964
10
-218.9999999999873
20
46.399998962900384
10
-218.99999999998744
20
54.399998962900433
10
-226.99999999998752
20
54.399998962900241
10
-226.99999999998704
20
46.399998962899971
10
-291.99999999998727
20
46.399998962899964
10
-291.99999999998738
20
54.399998962900241
10
-299.99999999998749
20
54.399998962900042
10
-299.99999999998704
20
46.39999896289978
10
-364.99999999998704
20
46.399998962899971
10
-364.99999999998727
20
54.399998962900085
10
-372.99999999998755
20
54.399998962899893
10
-372.99999999998738
20
46.39999896289963
10
-437.99999999999221
20
46.399998962899993
10
-437.99999999999244
20
54.399998962900284
10
-445.99999999999272
20
54.399998962900078
10
-445.99999999999221
20
46.399998962899822
10
-485.50000382209407
20
46.3999989629
10
-485.50000382209407
20
8.8817841970012523e-15
10
-445.99999999999119
20
-1.5987211554602254e-13
0
CIRCLE
5
101
100
AcDbEntity
8
INTERIOR_PROFILES
100
AcDbCircle
10
-295.99999999998602
20
-4.0000000000000391
30
0
40
0.49999999999997158
210
0
220
-0
230
1
0
CIRCLE
5
102
100
AcDbEntity
8
INTERIOR_PROFILES
100
AcDbCircle
10
-150.00000000000057
20
-4.0000000000001457
30
0
40
0.50000000000000711
210
0
220
-0
230
1
0
CIRCLE
5
103
100
AcDbEntity
8
INTERIOR_PROFILES
100
AcDbCircle
10
-441.99999999999108
20
-4.0000000000001101
30
0
40
0.49999999999997158
210
0
220
-0
230
1
0
CIRCLE
5
104
100
AcDbEntity
8
INTERIOR_PROFILES
100
AcDbCircle
10
-4.0000000000014069
20
50.399998962900021
30
0
40
0.50000000000000711
210
0
220
-0
230
1
0
CIRCLE
5
105
100
AcDbEntity
8
INTERIOR_PROFILES
100
AcDbCircle
10
-368.9999999999859
20
-4.0000000000001101
30
0
40
0.49999999999997158
210
0
220
-0
230
1
0
CIRCLE
5
106
100
AcDbEntity
8
INTERIOR_PROFILES
100
AcDbCircle
10
-77.000000000000526
20
-4.0000000000002345
30
0
40
0.50000000000000711
210
0
220
-0
230
1
0
CIRCLE
5
107
100
AcDbEntity
8
INTERIOR_PROFILES
100
AcDbCircle
10
69.000000000017963
20
50.39999896290005
30
0
40
0.49999999999999822
210
0
220
-0
230
1
0
CIRCLE
5
108
100
AcDbEntity
8
INTERIOR_PROFILES
100
AcDbCircle
10
-222.99999999998596
20
-4.000000000000119
30
0
40
0.49999999999997158
210
0
220
-0
230
1
0
CIRCLE
5
109
100
AcDbEntity
8
INTERIOR_PROFILES
100
AcDbCircle
10
-150.00000000000119
20
23.199999481443928
30
0
40
11.000001948181435
210
0
220
0
230
1
0
CIRCLE
5
110
100
AcDbEntity
8
INTERIOR_PROFILES
100
AcDbCircle
10
-441.9999999999917
20
23.199999481436791
30
0
40
11.000001948181435
210
0
220
0
230
1
0
CIRCLE
5
111
100
AcDbEntity
8
INTERIOR_PROFILES
100
AcDbCircle
10
-441.99999999999238
20
50.3999989629
30
0
40
0.49999999999997158
210
0
220
-0
230
1
0
CIRCLE
5
112
100
AcDbEntity
8
INTERIOR_PROFILES
100
AcDbCircle
10
-368.99999999998658
20
23.199999481438578
30
0
40
11.000001948181437
210
0
220
0
230
1
0
CIRCLE
5
113
100
AcDbEntity
8
INTERIOR_PROFILES
100
AcDbCircle
10
-295.99999999998664
20
23.199999481440358
30
0
40
11.000001948181435
210
0
220
0
230
1
0
CIRCLE
5
114
100
AcDbEntity
8
INTERIOR_PROFILES
100
AcDbCircle
10
-295.99999999998727
20
50.399998962899943
30
0
40
0.49999999999997158
210
0
220
-0
230
1
0
CIRCLE
5
115
100
AcDbEntity
8
INTERIOR_PROFILES
100
AcDbCircle
10
-222.99999999998661
20
23.199999481442145
30
0
40
11.000001948181433
210
0
220
0
230
1
0
CIRCLE
5
116
100
AcDbEntity
8
INTERIOR_PROFILES
100
AcDbCircle
10
-150.00000000000185
20
50.39999896290017
30
0
40
0.50000000000000711
210
0
220
-0
230
1
0
CIRCLE
5
117
100
AcDbEntity
8
INTERIOR_PROFILES
100
AcDbCircle
10
-77.000000000001876
20
50.399998962900057
30
0
40
0.50000000000000711
210
0
220
-0
230
1
0
CIRCLE
5
118
100
AcDbEntity
8
INTERIOR_PROFILES
100
AcDbCircle
10
-4.0000000000000568
20
-4.000000000000199
30
0
40
0.50000000000000711
210
0
220
-0
230
1
0
CIRCLE
5
119
100
AcDbEntity
8
INTERIOR_PROFILES
100
AcDbCircle
10
69.000000000018673
20
23.199999481449272
30
0
40
11.000001948181433
210
0
220
0
230
1
0
CIRCLE
5
120
100
AcDbEntity
8
INTERIOR_PROFILES
100
AcDbCircle
10
-77.000000000001165
20
23.199999481445705
30
0
40
11.000001948181437
210
0
220
0
230
1
0
CIRCLE
5
121
100
AcDbEntity
8
INTERIOR_PROFILES
100
AcDbCircle
10
69.000000000019313
20
-4.0000000000002967
30
0
40
0.49999999999999822
210
0
220
-0
230
1
0
CIRCLE
5
122
100
AcDbEntity
8
INTERIOR_PROFILES
100
AcDbCircle
10
-222.99999999998727
20
50.399998962900113
30
0
40
0.49999999999997158
210
0
220
-0
230
1
0
CIRCLE
5
123
100
AcDbEntity
8
INTERIOR_PROFILES
100
AcDbCircle
10
-4.0000000000006963
20
23.199999481447492
30
0
40
11.000001948181433
210
0
220
0
230
1
0
CIRCLE
5
124
100
AcDbEntity
8
INTERIOR_PROFILES
100
AcDbCircle
10
462.99999999999397
20
39.20000142939999
30
0
40
3.0000000000000071
210
0
220
0
230
-1
0
CIRCLE
5
125
100
AcDbEntity
8
INTERIOR_PROFILES
100
AcDbCircle
10
462.99999999999397
20
7.2000014293999959
30
0
40
3.0000000000000071
210
0
220
0
230
-1
0
CIRCLE
5
126
100
AcDbEntity
8
INTERIOR_PROFILES
100
AcDbCircle
10
-90.000000000068638
20
39.200001429399919
30
0
40
3.0000000000000071
210
0
220
0
230
-1
0
CIRCLE
5
127
100
AcDbEntity
8
INTERIOR_PROFILES
100
AcDbCircle
10
-368.99999999998721
20
50.399998962899971
30
0
40
0.49999999999997158
210
0
220
-0
230
1
0
CIRCLE
5
128
100
AcDbEntity
8
INTERIOR_PROFILES
100
AcDbCircle
10
186.4750053928627
20
7.2000014293999648
30
0
40
3.0000000000000071
210
0
220
0
230
-1
0
CIRCLE
5
129
100
AcDbEntity
8
INTERIOR_PROFILES
100
AcDbCircle
10
186.4750053928627
20
39.200001429399961
30
0
40
3.0000000000000071
210
0
220
0
230
-1
0
CIRCLE
5
130
100
AcDbEntity
8
INTERIOR_PROFILES
100
AcDbCircle
10
-90.000000000068638
20
7.2000014293999293
30
0
40
3.0000000000000071
210
0
220
0
230
-1
0
ENDSEC
0
SECTION
2
OBJECTS
0
DICTIONARY
5
C
100
AcDbDictionary
3
ACAD_GROUP
350
D
3
ACAD_MLINESTYLE
350
17
0
DICTIONARY
5
D
100
AcDbDictionary
0
DICTIONARY
5
1A
330
C
100
AcDbDictionary
0
DICTIONARY
5
17
100
AcDbDictionary
0
ENDSEC
0
EOF
