%TF.GenerationSoftware,KiCad,Pcbnew,10.0.3*%
%TF.CreationDate,2026-05-30T17:13:28+05:30*%
%TF.ProjectId,Nunam_Cell_Harness,4e756e61-6d5f-4436-956c-6c5f4861726e,1v0*%
%TF.SameCoordinates,Original*%
%TF.FileFunction,Legend,Top*%
%TF.FilePolarity,Positive*%
%FSLAX46Y46*%
G04 Gerber Fmt 4.6, Leading zero omitted, Abs format (unit mm)*
G04 Created by KiCad (PCBNEW 10.0.3) date 2026-05-30 17:13:28*
%MOMM*%
%LPD*%
G01*
G04 APERTURE LIST*
%ADD10C,0.150000*%
%ADD11C,0.000000*%
%ADD12C,0.100000*%
%ADD13C,0.120000*%
G04 APERTURE END LIST*
D10*
X730976189Y-329854818D02*
X730976189Y-328854818D01*
X730976189Y-328854818D02*
X731547617Y-329854818D01*
X731547617Y-329854818D02*
X731547617Y-328854818D01*
X731880951Y-328854818D02*
X732452379Y-328854818D01*
X732166665Y-329854818D02*
X732166665Y-328854818D01*
X733357141Y-329759579D02*
X733309522Y-329807199D01*
X733309522Y-329807199D02*
X733166665Y-329854818D01*
X733166665Y-329854818D02*
X733071427Y-329854818D01*
X733071427Y-329854818D02*
X732928570Y-329807199D01*
X732928570Y-329807199D02*
X732833332Y-329711960D01*
X732833332Y-329711960D02*
X732785713Y-329616722D01*
X732785713Y-329616722D02*
X732738094Y-329426246D01*
X732738094Y-329426246D02*
X732738094Y-329283389D01*
X732738094Y-329283389D02*
X732785713Y-329092913D01*
X732785713Y-329092913D02*
X732833332Y-328997675D01*
X732833332Y-328997675D02*
X732928570Y-328902437D01*
X732928570Y-328902437D02*
X733071427Y-328854818D01*
X733071427Y-328854818D02*
X733166665Y-328854818D01*
X733166665Y-328854818D02*
X733309522Y-328902437D01*
X733309522Y-328902437D02*
X733357141Y-328950056D01*
X733738094Y-328950056D02*
X733785713Y-328902437D01*
X733785713Y-328902437D02*
X733880951Y-328854818D01*
X733880951Y-328854818D02*
X734119046Y-328854818D01*
X734119046Y-328854818D02*
X734214284Y-328902437D01*
X734214284Y-328902437D02*
X734261903Y-328950056D01*
X734261903Y-328950056D02*
X734309522Y-329045294D01*
X734309522Y-329045294D02*
X734309522Y-329140532D01*
X734309522Y-329140532D02*
X734261903Y-329283389D01*
X734261903Y-329283389D02*
X733690475Y-329854818D01*
X733690475Y-329854818D02*
X734309522Y-329854818D01*
X734499999Y-329950056D02*
X735261903Y-329950056D01*
X735833332Y-329331008D02*
X735976189Y-329378627D01*
X735976189Y-329378627D02*
X736023808Y-329426246D01*
X736023808Y-329426246D02*
X736071427Y-329521484D01*
X736071427Y-329521484D02*
X736071427Y-329664341D01*
X736071427Y-329664341D02*
X736023808Y-329759579D01*
X736023808Y-329759579D02*
X735976189Y-329807199D01*
X735976189Y-329807199D02*
X735880951Y-329854818D01*
X735880951Y-329854818D02*
X735499999Y-329854818D01*
X735499999Y-329854818D02*
X735499999Y-328854818D01*
X735499999Y-328854818D02*
X735833332Y-328854818D01*
X735833332Y-328854818D02*
X735928570Y-328902437D01*
X735928570Y-328902437D02*
X735976189Y-328950056D01*
X735976189Y-328950056D02*
X736023808Y-329045294D01*
X736023808Y-329045294D02*
X736023808Y-329140532D01*
X736023808Y-329140532D02*
X735976189Y-329235770D01*
X735976189Y-329235770D02*
X735928570Y-329283389D01*
X735928570Y-329283389D02*
X735833332Y-329331008D01*
X735833332Y-329331008D02*
X735499999Y-329331008D01*
X184738093Y-355759579D02*
X184690474Y-355807199D01*
X184690474Y-355807199D02*
X184547617Y-355854818D01*
X184547617Y-355854818D02*
X184452379Y-355854818D01*
X184452379Y-355854818D02*
X184309522Y-355807199D01*
X184309522Y-355807199D02*
X184214284Y-355711960D01*
X184214284Y-355711960D02*
X184166665Y-355616722D01*
X184166665Y-355616722D02*
X184119046Y-355426246D01*
X184119046Y-355426246D02*
X184119046Y-355283389D01*
X184119046Y-355283389D02*
X184166665Y-355092913D01*
X184166665Y-355092913D02*
X184214284Y-354997675D01*
X184214284Y-354997675D02*
X184309522Y-354902437D01*
X184309522Y-354902437D02*
X184452379Y-354854818D01*
X184452379Y-354854818D02*
X184547617Y-354854818D01*
X184547617Y-354854818D02*
X184690474Y-354902437D01*
X184690474Y-354902437D02*
X184738093Y-354950056D01*
X185166665Y-355331008D02*
X185499998Y-355331008D01*
X185642855Y-355854818D02*
X185166665Y-355854818D01*
X185166665Y-355854818D02*
X185166665Y-354854818D01*
X185166665Y-354854818D02*
X185642855Y-354854818D01*
X186547617Y-355854818D02*
X186071427Y-355854818D01*
X186071427Y-355854818D02*
X186071427Y-354854818D01*
X187357141Y-355854818D02*
X186880951Y-355854818D01*
X186880951Y-355854818D02*
X186880951Y-354854818D01*
X187452380Y-355950056D02*
X188214284Y-355950056D01*
X188976189Y-355854818D02*
X188404761Y-355854818D01*
X188690475Y-355854818D02*
X188690475Y-354854818D01*
X188690475Y-354854818D02*
X188595237Y-354997675D01*
X188595237Y-354997675D02*
X188499999Y-355092913D01*
X188499999Y-355092913D02*
X188404761Y-355140532D01*
X189404761Y-355473865D02*
X190166666Y-355473865D01*
X191357141Y-354807199D02*
X190499999Y-356092913D01*
X192023808Y-355331008D02*
X192166665Y-355378627D01*
X192166665Y-355378627D02*
X192214284Y-355426246D01*
X192214284Y-355426246D02*
X192261903Y-355521484D01*
X192261903Y-355521484D02*
X192261903Y-355664341D01*
X192261903Y-355664341D02*
X192214284Y-355759579D01*
X192214284Y-355759579D02*
X192166665Y-355807199D01*
X192166665Y-355807199D02*
X192071427Y-355854818D01*
X192071427Y-355854818D02*
X191690475Y-355854818D01*
X191690475Y-355854818D02*
X191690475Y-354854818D01*
X191690475Y-354854818D02*
X192023808Y-354854818D01*
X192023808Y-354854818D02*
X192119046Y-354902437D01*
X192119046Y-354902437D02*
X192166665Y-354950056D01*
X192166665Y-354950056D02*
X192214284Y-355045294D01*
X192214284Y-355045294D02*
X192214284Y-355140532D01*
X192214284Y-355140532D02*
X192166665Y-355235770D01*
X192166665Y-355235770D02*
X192119046Y-355283389D01*
X192119046Y-355283389D02*
X192023808Y-355331008D01*
X192023808Y-355331008D02*
X191690475Y-355331008D01*
X192642856Y-355569103D02*
X193119046Y-355569103D01*
X192547618Y-355854818D02*
X192880951Y-354854818D01*
X192880951Y-354854818D02*
X193214284Y-355854818D01*
X193404761Y-354854818D02*
X193976189Y-354854818D01*
X193690475Y-355854818D02*
X193690475Y-354854818D01*
X194166666Y-354854818D02*
X194738094Y-354854818D01*
X194452380Y-355854818D02*
X194452380Y-354854818D01*
X195071428Y-355473865D02*
X195833333Y-355473865D01*
X195452380Y-355854818D02*
X195452380Y-355092913D01*
X404476189Y-357259579D02*
X404428570Y-357307199D01*
X404428570Y-357307199D02*
X404285713Y-357354818D01*
X404285713Y-357354818D02*
X404190475Y-357354818D01*
X404190475Y-357354818D02*
X404047618Y-357307199D01*
X404047618Y-357307199D02*
X403952380Y-357211960D01*
X403952380Y-357211960D02*
X403904761Y-357116722D01*
X403904761Y-357116722D02*
X403857142Y-356926246D01*
X403857142Y-356926246D02*
X403857142Y-356783389D01*
X403857142Y-356783389D02*
X403904761Y-356592913D01*
X403904761Y-356592913D02*
X403952380Y-356497675D01*
X403952380Y-356497675D02*
X404047618Y-356402437D01*
X404047618Y-356402437D02*
X404190475Y-356354818D01*
X404190475Y-356354818D02*
X404285713Y-356354818D01*
X404285713Y-356354818D02*
X404428570Y-356402437D01*
X404428570Y-356402437D02*
X404476189Y-356450056D01*
X404904761Y-356831008D02*
X405238094Y-356831008D01*
X405380951Y-357354818D02*
X404904761Y-357354818D01*
X404904761Y-357354818D02*
X404904761Y-356354818D01*
X404904761Y-356354818D02*
X405380951Y-356354818D01*
X406285713Y-357354818D02*
X405809523Y-357354818D01*
X405809523Y-357354818D02*
X405809523Y-356354818D01*
X407095237Y-357354818D02*
X406619047Y-357354818D01*
X406619047Y-357354818D02*
X406619047Y-356354818D01*
X407190476Y-357450056D02*
X407952380Y-357450056D01*
X408619047Y-356688151D02*
X408619047Y-357354818D01*
X408380952Y-356307199D02*
X408142857Y-357021484D01*
X408142857Y-357021484D02*
X408761904Y-357021484D01*
X409142857Y-356973865D02*
X409904762Y-356973865D01*
X409523809Y-357354818D02*
X409523809Y-356592913D01*
X411095237Y-356307199D02*
X410238095Y-357592913D01*
X411952380Y-357354818D02*
X411380952Y-357354818D01*
X411666666Y-357354818D02*
X411666666Y-356354818D01*
X411666666Y-356354818D02*
X411571428Y-356497675D01*
X411571428Y-356497675D02*
X411476190Y-356592913D01*
X411476190Y-356592913D02*
X411380952Y-356640532D01*
X412285714Y-356354818D02*
X412904761Y-356354818D01*
X412904761Y-356354818D02*
X412571428Y-356735770D01*
X412571428Y-356735770D02*
X412714285Y-356735770D01*
X412714285Y-356735770D02*
X412809523Y-356783389D01*
X412809523Y-356783389D02*
X412857142Y-356831008D01*
X412857142Y-356831008D02*
X412904761Y-356926246D01*
X412904761Y-356926246D02*
X412904761Y-357164341D01*
X412904761Y-357164341D02*
X412857142Y-357259579D01*
X412857142Y-357259579D02*
X412809523Y-357307199D01*
X412809523Y-357307199D02*
X412714285Y-357354818D01*
X412714285Y-357354818D02*
X412428571Y-357354818D01*
X412428571Y-357354818D02*
X412333333Y-357307199D01*
X412333333Y-357307199D02*
X412285714Y-357259579D01*
X413333333Y-356973865D02*
X414095238Y-356973865D01*
X413714285Y-357354818D02*
X413714285Y-356592913D01*
X181214284Y-353831008D02*
X181357141Y-353878627D01*
X181357141Y-353878627D02*
X181404760Y-353926246D01*
X181404760Y-353926246D02*
X181452379Y-354021484D01*
X181452379Y-354021484D02*
X181452379Y-354164341D01*
X181452379Y-354164341D02*
X181404760Y-354259579D01*
X181404760Y-354259579D02*
X181357141Y-354307199D01*
X181357141Y-354307199D02*
X181261903Y-354354818D01*
X181261903Y-354354818D02*
X180880951Y-354354818D01*
X180880951Y-354354818D02*
X180880951Y-353354818D01*
X180880951Y-353354818D02*
X181214284Y-353354818D01*
X181214284Y-353354818D02*
X181309522Y-353402437D01*
X181309522Y-353402437D02*
X181357141Y-353450056D01*
X181357141Y-353450056D02*
X181404760Y-353545294D01*
X181404760Y-353545294D02*
X181404760Y-353640532D01*
X181404760Y-353640532D02*
X181357141Y-353735770D01*
X181357141Y-353735770D02*
X181309522Y-353783389D01*
X181309522Y-353783389D02*
X181214284Y-353831008D01*
X181214284Y-353831008D02*
X180880951Y-353831008D01*
X181833332Y-354069103D02*
X182309522Y-354069103D01*
X181738094Y-354354818D02*
X182071427Y-353354818D01*
X182071427Y-353354818D02*
X182404760Y-354354818D01*
X182595237Y-353354818D02*
X183166665Y-353354818D01*
X182880951Y-354354818D02*
X182880951Y-353354818D01*
X183357142Y-353354818D02*
X183928570Y-353354818D01*
X183642856Y-354354818D02*
X183642856Y-353354818D01*
X184261904Y-353973865D02*
X185023809Y-353973865D01*
X186214284Y-353307199D02*
X185357142Y-354592913D01*
X186547618Y-354354818D02*
X186547618Y-353354818D01*
X186547618Y-353354818D02*
X187119046Y-354354818D01*
X187119046Y-354354818D02*
X187119046Y-353354818D01*
X188166665Y-354259579D02*
X188119046Y-354307199D01*
X188119046Y-354307199D02*
X187976189Y-354354818D01*
X187976189Y-354354818D02*
X187880951Y-354354818D01*
X187880951Y-354354818D02*
X187738094Y-354307199D01*
X187738094Y-354307199D02*
X187642856Y-354211960D01*
X187642856Y-354211960D02*
X187595237Y-354116722D01*
X187595237Y-354116722D02*
X187547618Y-353926246D01*
X187547618Y-353926246D02*
X187547618Y-353783389D01*
X187547618Y-353783389D02*
X187595237Y-353592913D01*
X187595237Y-353592913D02*
X187642856Y-353497675D01*
X187642856Y-353497675D02*
X187738094Y-353402437D01*
X187738094Y-353402437D02*
X187880951Y-353354818D01*
X187880951Y-353354818D02*
X187976189Y-353354818D01*
X187976189Y-353354818D02*
X188119046Y-353402437D01*
X188119046Y-353402437D02*
X188166665Y-353450056D01*
X550476189Y-357259579D02*
X550428570Y-357307199D01*
X550428570Y-357307199D02*
X550285713Y-357354818D01*
X550285713Y-357354818D02*
X550190475Y-357354818D01*
X550190475Y-357354818D02*
X550047618Y-357307199D01*
X550047618Y-357307199D02*
X549952380Y-357211960D01*
X549952380Y-357211960D02*
X549904761Y-357116722D01*
X549904761Y-357116722D02*
X549857142Y-356926246D01*
X549857142Y-356926246D02*
X549857142Y-356783389D01*
X549857142Y-356783389D02*
X549904761Y-356592913D01*
X549904761Y-356592913D02*
X549952380Y-356497675D01*
X549952380Y-356497675D02*
X550047618Y-356402437D01*
X550047618Y-356402437D02*
X550190475Y-356354818D01*
X550190475Y-356354818D02*
X550285713Y-356354818D01*
X550285713Y-356354818D02*
X550428570Y-356402437D01*
X550428570Y-356402437D02*
X550476189Y-356450056D01*
X550904761Y-356831008D02*
X551238094Y-356831008D01*
X551380951Y-357354818D02*
X550904761Y-357354818D01*
X550904761Y-357354818D02*
X550904761Y-356354818D01*
X550904761Y-356354818D02*
X551380951Y-356354818D01*
X552285713Y-357354818D02*
X551809523Y-357354818D01*
X551809523Y-357354818D02*
X551809523Y-356354818D01*
X553095237Y-357354818D02*
X552619047Y-357354818D01*
X552619047Y-357354818D02*
X552619047Y-356354818D01*
X553190476Y-357450056D02*
X553952380Y-357450056D01*
X554619047Y-356354818D02*
X554428571Y-356354818D01*
X554428571Y-356354818D02*
X554333333Y-356402437D01*
X554333333Y-356402437D02*
X554285714Y-356450056D01*
X554285714Y-356450056D02*
X554190476Y-356592913D01*
X554190476Y-356592913D02*
X554142857Y-356783389D01*
X554142857Y-356783389D02*
X554142857Y-357164341D01*
X554142857Y-357164341D02*
X554190476Y-357259579D01*
X554190476Y-357259579D02*
X554238095Y-357307199D01*
X554238095Y-357307199D02*
X554333333Y-357354818D01*
X554333333Y-357354818D02*
X554523809Y-357354818D01*
X554523809Y-357354818D02*
X554619047Y-357307199D01*
X554619047Y-357307199D02*
X554666666Y-357259579D01*
X554666666Y-357259579D02*
X554714285Y-357164341D01*
X554714285Y-357164341D02*
X554714285Y-356926246D01*
X554714285Y-356926246D02*
X554666666Y-356831008D01*
X554666666Y-356831008D02*
X554619047Y-356783389D01*
X554619047Y-356783389D02*
X554523809Y-356735770D01*
X554523809Y-356735770D02*
X554333333Y-356735770D01*
X554333333Y-356735770D02*
X554238095Y-356783389D01*
X554238095Y-356783389D02*
X554190476Y-356831008D01*
X554190476Y-356831008D02*
X554142857Y-356926246D01*
X555142857Y-356973865D02*
X555904762Y-356973865D01*
X555523809Y-357354818D02*
X555523809Y-356592913D01*
X557095237Y-356307199D02*
X556238095Y-357592913D01*
X557952380Y-357354818D02*
X557380952Y-357354818D01*
X557666666Y-357354818D02*
X557666666Y-356354818D01*
X557666666Y-356354818D02*
X557571428Y-356497675D01*
X557571428Y-356497675D02*
X557476190Y-356592913D01*
X557476190Y-356592913D02*
X557380952Y-356640532D01*
X558904761Y-357354818D02*
X558333333Y-357354818D01*
X558619047Y-357354818D02*
X558619047Y-356354818D01*
X558619047Y-356354818D02*
X558523809Y-356497675D01*
X558523809Y-356497675D02*
X558428571Y-356592913D01*
X558428571Y-356592913D02*
X558333333Y-356640532D01*
X559333333Y-356973865D02*
X560095238Y-356973865D01*
X559714285Y-357354818D02*
X559714285Y-356592913D01*
X696952379Y-357259579D02*
X696904760Y-357307199D01*
X696904760Y-357307199D02*
X696761903Y-357354818D01*
X696761903Y-357354818D02*
X696666665Y-357354818D01*
X696666665Y-357354818D02*
X696523808Y-357307199D01*
X696523808Y-357307199D02*
X696428570Y-357211960D01*
X696428570Y-357211960D02*
X696380951Y-357116722D01*
X696380951Y-357116722D02*
X696333332Y-356926246D01*
X696333332Y-356926246D02*
X696333332Y-356783389D01*
X696333332Y-356783389D02*
X696380951Y-356592913D01*
X696380951Y-356592913D02*
X696428570Y-356497675D01*
X696428570Y-356497675D02*
X696523808Y-356402437D01*
X696523808Y-356402437D02*
X696666665Y-356354818D01*
X696666665Y-356354818D02*
X696761903Y-356354818D01*
X696761903Y-356354818D02*
X696904760Y-356402437D01*
X696904760Y-356402437D02*
X696952379Y-356450056D01*
X697380951Y-356831008D02*
X697714284Y-356831008D01*
X697857141Y-357354818D02*
X697380951Y-357354818D01*
X697380951Y-357354818D02*
X697380951Y-356354818D01*
X697380951Y-356354818D02*
X697857141Y-356354818D01*
X698761903Y-357354818D02*
X698285713Y-357354818D01*
X698285713Y-357354818D02*
X698285713Y-356354818D01*
X699571427Y-357354818D02*
X699095237Y-357354818D01*
X699095237Y-357354818D02*
X699095237Y-356354818D01*
X699666666Y-357450056D02*
X700428570Y-357450056D01*
X700809523Y-356783389D02*
X700714285Y-356735770D01*
X700714285Y-356735770D02*
X700666666Y-356688151D01*
X700666666Y-356688151D02*
X700619047Y-356592913D01*
X700619047Y-356592913D02*
X700619047Y-356545294D01*
X700619047Y-356545294D02*
X700666666Y-356450056D01*
X700666666Y-356450056D02*
X700714285Y-356402437D01*
X700714285Y-356402437D02*
X700809523Y-356354818D01*
X700809523Y-356354818D02*
X700999999Y-356354818D01*
X700999999Y-356354818D02*
X701095237Y-356402437D01*
X701095237Y-356402437D02*
X701142856Y-356450056D01*
X701142856Y-356450056D02*
X701190475Y-356545294D01*
X701190475Y-356545294D02*
X701190475Y-356592913D01*
X701190475Y-356592913D02*
X701142856Y-356688151D01*
X701142856Y-356688151D02*
X701095237Y-356735770D01*
X701095237Y-356735770D02*
X700999999Y-356783389D01*
X700999999Y-356783389D02*
X700809523Y-356783389D01*
X700809523Y-356783389D02*
X700714285Y-356831008D01*
X700714285Y-356831008D02*
X700666666Y-356878627D01*
X700666666Y-356878627D02*
X700619047Y-356973865D01*
X700619047Y-356973865D02*
X700619047Y-357164341D01*
X700619047Y-357164341D02*
X700666666Y-357259579D01*
X700666666Y-357259579D02*
X700714285Y-357307199D01*
X700714285Y-357307199D02*
X700809523Y-357354818D01*
X700809523Y-357354818D02*
X700999999Y-357354818D01*
X700999999Y-357354818D02*
X701095237Y-357307199D01*
X701095237Y-357307199D02*
X701142856Y-357259579D01*
X701142856Y-357259579D02*
X701190475Y-357164341D01*
X701190475Y-357164341D02*
X701190475Y-356973865D01*
X701190475Y-356973865D02*
X701142856Y-356878627D01*
X701142856Y-356878627D02*
X701095237Y-356831008D01*
X701095237Y-356831008D02*
X700999999Y-356783389D01*
X701619047Y-356973865D02*
X702380952Y-356973865D01*
X701999999Y-357354818D02*
X701999999Y-356592913D01*
X703571427Y-356307199D02*
X702714285Y-357592913D01*
X703952380Y-357354818D02*
X704142856Y-357354818D01*
X704142856Y-357354818D02*
X704238094Y-357307199D01*
X704238094Y-357307199D02*
X704285713Y-357259579D01*
X704285713Y-357259579D02*
X704380951Y-357116722D01*
X704380951Y-357116722D02*
X704428570Y-356926246D01*
X704428570Y-356926246D02*
X704428570Y-356545294D01*
X704428570Y-356545294D02*
X704380951Y-356450056D01*
X704380951Y-356450056D02*
X704333332Y-356402437D01*
X704333332Y-356402437D02*
X704238094Y-356354818D01*
X704238094Y-356354818D02*
X704047618Y-356354818D01*
X704047618Y-356354818D02*
X703952380Y-356402437D01*
X703952380Y-356402437D02*
X703904761Y-356450056D01*
X703904761Y-356450056D02*
X703857142Y-356545294D01*
X703857142Y-356545294D02*
X703857142Y-356783389D01*
X703857142Y-356783389D02*
X703904761Y-356878627D01*
X703904761Y-356878627D02*
X703952380Y-356926246D01*
X703952380Y-356926246D02*
X704047618Y-356973865D01*
X704047618Y-356973865D02*
X704238094Y-356973865D01*
X704238094Y-356973865D02*
X704333332Y-356926246D01*
X704333332Y-356926246D02*
X704380951Y-356878627D01*
X704380951Y-356878627D02*
X704428570Y-356783389D01*
X704857142Y-356973865D02*
X705619047Y-356973865D01*
X705238094Y-357354818D02*
X705238094Y-356592913D01*
X215547618Y-330354818D02*
X215547618Y-329354818D01*
X215547618Y-329354818D02*
X216119046Y-330354818D01*
X216119046Y-330354818D02*
X216119046Y-329354818D01*
X216452380Y-329354818D02*
X217023808Y-329354818D01*
X216738094Y-330354818D02*
X216738094Y-329354818D01*
X217928570Y-330259579D02*
X217880951Y-330307199D01*
X217880951Y-330307199D02*
X217738094Y-330354818D01*
X217738094Y-330354818D02*
X217642856Y-330354818D01*
X217642856Y-330354818D02*
X217499999Y-330307199D01*
X217499999Y-330307199D02*
X217404761Y-330211960D01*
X217404761Y-330211960D02*
X217357142Y-330116722D01*
X217357142Y-330116722D02*
X217309523Y-329926246D01*
X217309523Y-329926246D02*
X217309523Y-329783389D01*
X217309523Y-329783389D02*
X217357142Y-329592913D01*
X217357142Y-329592913D02*
X217404761Y-329497675D01*
X217404761Y-329497675D02*
X217499999Y-329402437D01*
X217499999Y-329402437D02*
X217642856Y-329354818D01*
X217642856Y-329354818D02*
X217738094Y-329354818D01*
X217738094Y-329354818D02*
X217880951Y-329402437D01*
X217880951Y-329402437D02*
X217928570Y-329450056D01*
X218880951Y-330354818D02*
X218309523Y-330354818D01*
X218595237Y-330354818D02*
X218595237Y-329354818D01*
X218595237Y-329354818D02*
X218499999Y-329497675D01*
X218499999Y-329497675D02*
X218404761Y-329592913D01*
X218404761Y-329592913D02*
X218309523Y-329640532D01*
X219071428Y-330450056D02*
X219833332Y-330450056D01*
X220023809Y-330069103D02*
X220499999Y-330069103D01*
X219928571Y-330354818D02*
X220261904Y-329354818D01*
X220261904Y-329354818D02*
X220595237Y-330354818D01*
X160464818Y-335033332D02*
X161179103Y-335033332D01*
X161179103Y-335033332D02*
X161321960Y-335080951D01*
X161321960Y-335080951D02*
X161417199Y-335176189D01*
X161417199Y-335176189D02*
X161464818Y-335319046D01*
X161464818Y-335319046D02*
X161464818Y-335414284D01*
X161464818Y-334033332D02*
X161464818Y-334604760D01*
X161464818Y-334319046D02*
X160464818Y-334319046D01*
X160464818Y-334319046D02*
X160607675Y-334414284D01*
X160607675Y-334414284D02*
X160702913Y-334509522D01*
X160702913Y-334509522D02*
X160750532Y-334604760D01*
X185976189Y-313859579D02*
X185928570Y-313907199D01*
X185928570Y-313907199D02*
X185785713Y-313954818D01*
X185785713Y-313954818D02*
X185690475Y-313954818D01*
X185690475Y-313954818D02*
X185547618Y-313907199D01*
X185547618Y-313907199D02*
X185452380Y-313811960D01*
X185452380Y-313811960D02*
X185404761Y-313716722D01*
X185404761Y-313716722D02*
X185357142Y-313526246D01*
X185357142Y-313526246D02*
X185357142Y-313383389D01*
X185357142Y-313383389D02*
X185404761Y-313192913D01*
X185404761Y-313192913D02*
X185452380Y-313097675D01*
X185452380Y-313097675D02*
X185547618Y-313002437D01*
X185547618Y-313002437D02*
X185690475Y-312954818D01*
X185690475Y-312954818D02*
X185785713Y-312954818D01*
X185785713Y-312954818D02*
X185928570Y-313002437D01*
X185928570Y-313002437D02*
X185976189Y-313050056D01*
X186404761Y-313431008D02*
X186738094Y-313431008D01*
X186880951Y-313954818D02*
X186404761Y-313954818D01*
X186404761Y-313954818D02*
X186404761Y-312954818D01*
X186404761Y-312954818D02*
X186880951Y-312954818D01*
X187785713Y-313954818D02*
X187309523Y-313954818D01*
X187309523Y-313954818D02*
X187309523Y-312954818D01*
X188595237Y-313954818D02*
X188119047Y-313954818D01*
X188119047Y-313954818D02*
X188119047Y-312954818D01*
X188690476Y-314050056D02*
X189452380Y-314050056D01*
X190214285Y-313954818D02*
X189642857Y-313954818D01*
X189928571Y-313954818D02*
X189928571Y-312954818D01*
X189928571Y-312954818D02*
X189833333Y-313097675D01*
X189833333Y-313097675D02*
X189738095Y-313192913D01*
X189738095Y-313192913D02*
X189642857Y-313240532D01*
X190642857Y-313573865D02*
X191404762Y-313573865D01*
X191023809Y-313954818D02*
X191023809Y-313192913D01*
X192595237Y-312907199D02*
X191738095Y-314192913D01*
X193452380Y-313954818D02*
X192880952Y-313954818D01*
X193166666Y-313954818D02*
X193166666Y-312954818D01*
X193166666Y-312954818D02*
X193071428Y-313097675D01*
X193071428Y-313097675D02*
X192976190Y-313192913D01*
X192976190Y-313192913D02*
X192880952Y-313240532D01*
X194309523Y-312954818D02*
X194119047Y-312954818D01*
X194119047Y-312954818D02*
X194023809Y-313002437D01*
X194023809Y-313002437D02*
X193976190Y-313050056D01*
X193976190Y-313050056D02*
X193880952Y-313192913D01*
X193880952Y-313192913D02*
X193833333Y-313383389D01*
X193833333Y-313383389D02*
X193833333Y-313764341D01*
X193833333Y-313764341D02*
X193880952Y-313859579D01*
X193880952Y-313859579D02*
X193928571Y-313907199D01*
X193928571Y-313907199D02*
X194023809Y-313954818D01*
X194023809Y-313954818D02*
X194214285Y-313954818D01*
X194214285Y-313954818D02*
X194309523Y-313907199D01*
X194309523Y-313907199D02*
X194357142Y-313859579D01*
X194357142Y-313859579D02*
X194404761Y-313764341D01*
X194404761Y-313764341D02*
X194404761Y-313526246D01*
X194404761Y-313526246D02*
X194357142Y-313431008D01*
X194357142Y-313431008D02*
X194309523Y-313383389D01*
X194309523Y-313383389D02*
X194214285Y-313335770D01*
X194214285Y-313335770D02*
X194023809Y-313335770D01*
X194023809Y-313335770D02*
X193928571Y-313383389D01*
X193928571Y-313383389D02*
X193880952Y-313431008D01*
X193880952Y-313431008D02*
X193833333Y-313526246D01*
X194833333Y-313573865D02*
X195595238Y-313573865D01*
X195214285Y-313954818D02*
X195214285Y-313192913D01*
X331476189Y-312759579D02*
X331428570Y-312807199D01*
X331428570Y-312807199D02*
X331285713Y-312854818D01*
X331285713Y-312854818D02*
X331190475Y-312854818D01*
X331190475Y-312854818D02*
X331047618Y-312807199D01*
X331047618Y-312807199D02*
X330952380Y-312711960D01*
X330952380Y-312711960D02*
X330904761Y-312616722D01*
X330904761Y-312616722D02*
X330857142Y-312426246D01*
X330857142Y-312426246D02*
X330857142Y-312283389D01*
X330857142Y-312283389D02*
X330904761Y-312092913D01*
X330904761Y-312092913D02*
X330952380Y-311997675D01*
X330952380Y-311997675D02*
X331047618Y-311902437D01*
X331047618Y-311902437D02*
X331190475Y-311854818D01*
X331190475Y-311854818D02*
X331285713Y-311854818D01*
X331285713Y-311854818D02*
X331428570Y-311902437D01*
X331428570Y-311902437D02*
X331476189Y-311950056D01*
X331904761Y-312331008D02*
X332238094Y-312331008D01*
X332380951Y-312854818D02*
X331904761Y-312854818D01*
X331904761Y-312854818D02*
X331904761Y-311854818D01*
X331904761Y-311854818D02*
X332380951Y-311854818D01*
X333285713Y-312854818D02*
X332809523Y-312854818D01*
X332809523Y-312854818D02*
X332809523Y-311854818D01*
X334095237Y-312854818D02*
X333619047Y-312854818D01*
X333619047Y-312854818D02*
X333619047Y-311854818D01*
X334190476Y-312950056D02*
X334952380Y-312950056D01*
X335095238Y-311854818D02*
X335714285Y-311854818D01*
X335714285Y-311854818D02*
X335380952Y-312235770D01*
X335380952Y-312235770D02*
X335523809Y-312235770D01*
X335523809Y-312235770D02*
X335619047Y-312283389D01*
X335619047Y-312283389D02*
X335666666Y-312331008D01*
X335666666Y-312331008D02*
X335714285Y-312426246D01*
X335714285Y-312426246D02*
X335714285Y-312664341D01*
X335714285Y-312664341D02*
X335666666Y-312759579D01*
X335666666Y-312759579D02*
X335619047Y-312807199D01*
X335619047Y-312807199D02*
X335523809Y-312854818D01*
X335523809Y-312854818D02*
X335238095Y-312854818D01*
X335238095Y-312854818D02*
X335142857Y-312807199D01*
X335142857Y-312807199D02*
X335095238Y-312759579D01*
X336142857Y-312473865D02*
X336904762Y-312473865D01*
X336523809Y-312854818D02*
X336523809Y-312092913D01*
X338095237Y-311807199D02*
X337238095Y-313092913D01*
X338952380Y-312854818D02*
X338380952Y-312854818D01*
X338666666Y-312854818D02*
X338666666Y-311854818D01*
X338666666Y-311854818D02*
X338571428Y-311997675D01*
X338571428Y-311997675D02*
X338476190Y-312092913D01*
X338476190Y-312092913D02*
X338380952Y-312140532D01*
X339809523Y-312188151D02*
X339809523Y-312854818D01*
X339571428Y-311807199D02*
X339333333Y-312521484D01*
X339333333Y-312521484D02*
X339952380Y-312521484D01*
X340333333Y-312473865D02*
X341095238Y-312473865D01*
X340714285Y-312854818D02*
X340714285Y-312092913D01*
X215476189Y-339654818D02*
X215476189Y-338654818D01*
X215476189Y-338654818D02*
X216047617Y-339654818D01*
X216047617Y-339654818D02*
X216047617Y-338654818D01*
X216380951Y-338654818D02*
X216952379Y-338654818D01*
X216666665Y-339654818D02*
X216666665Y-338654818D01*
X217857141Y-339559579D02*
X217809522Y-339607199D01*
X217809522Y-339607199D02*
X217666665Y-339654818D01*
X217666665Y-339654818D02*
X217571427Y-339654818D01*
X217571427Y-339654818D02*
X217428570Y-339607199D01*
X217428570Y-339607199D02*
X217333332Y-339511960D01*
X217333332Y-339511960D02*
X217285713Y-339416722D01*
X217285713Y-339416722D02*
X217238094Y-339226246D01*
X217238094Y-339226246D02*
X217238094Y-339083389D01*
X217238094Y-339083389D02*
X217285713Y-338892913D01*
X217285713Y-338892913D02*
X217333332Y-338797675D01*
X217333332Y-338797675D02*
X217428570Y-338702437D01*
X217428570Y-338702437D02*
X217571427Y-338654818D01*
X217571427Y-338654818D02*
X217666665Y-338654818D01*
X217666665Y-338654818D02*
X217809522Y-338702437D01*
X217809522Y-338702437D02*
X217857141Y-338750056D01*
X218809522Y-339654818D02*
X218238094Y-339654818D01*
X218523808Y-339654818D02*
X218523808Y-338654818D01*
X218523808Y-338654818D02*
X218428570Y-338797675D01*
X218428570Y-338797675D02*
X218333332Y-338892913D01*
X218333332Y-338892913D02*
X218238094Y-338940532D01*
X218999999Y-339750056D02*
X219761903Y-339750056D01*
X220333332Y-339131008D02*
X220476189Y-339178627D01*
X220476189Y-339178627D02*
X220523808Y-339226246D01*
X220523808Y-339226246D02*
X220571427Y-339321484D01*
X220571427Y-339321484D02*
X220571427Y-339464341D01*
X220571427Y-339464341D02*
X220523808Y-339559579D01*
X220523808Y-339559579D02*
X220476189Y-339607199D01*
X220476189Y-339607199D02*
X220380951Y-339654818D01*
X220380951Y-339654818D02*
X219999999Y-339654818D01*
X219999999Y-339654818D02*
X219999999Y-338654818D01*
X219999999Y-338654818D02*
X220333332Y-338654818D01*
X220333332Y-338654818D02*
X220428570Y-338702437D01*
X220428570Y-338702437D02*
X220476189Y-338750056D01*
X220476189Y-338750056D02*
X220523808Y-338845294D01*
X220523808Y-338845294D02*
X220523808Y-338940532D01*
X220523808Y-338940532D02*
X220476189Y-339035770D01*
X220476189Y-339035770D02*
X220428570Y-339083389D01*
X220428570Y-339083389D02*
X220333332Y-339131008D01*
X220333332Y-339131008D02*
X219999999Y-339131008D01*
X623976189Y-313259579D02*
X623928570Y-313307199D01*
X623928570Y-313307199D02*
X623785713Y-313354818D01*
X623785713Y-313354818D02*
X623690475Y-313354818D01*
X623690475Y-313354818D02*
X623547618Y-313307199D01*
X623547618Y-313307199D02*
X623452380Y-313211960D01*
X623452380Y-313211960D02*
X623404761Y-313116722D01*
X623404761Y-313116722D02*
X623357142Y-312926246D01*
X623357142Y-312926246D02*
X623357142Y-312783389D01*
X623357142Y-312783389D02*
X623404761Y-312592913D01*
X623404761Y-312592913D02*
X623452380Y-312497675D01*
X623452380Y-312497675D02*
X623547618Y-312402437D01*
X623547618Y-312402437D02*
X623690475Y-312354818D01*
X623690475Y-312354818D02*
X623785713Y-312354818D01*
X623785713Y-312354818D02*
X623928570Y-312402437D01*
X623928570Y-312402437D02*
X623976189Y-312450056D01*
X624404761Y-312831008D02*
X624738094Y-312831008D01*
X624880951Y-313354818D02*
X624404761Y-313354818D01*
X624404761Y-313354818D02*
X624404761Y-312354818D01*
X624404761Y-312354818D02*
X624880951Y-312354818D01*
X625785713Y-313354818D02*
X625309523Y-313354818D01*
X625309523Y-313354818D02*
X625309523Y-312354818D01*
X626595237Y-313354818D02*
X626119047Y-313354818D01*
X626119047Y-313354818D02*
X626119047Y-312354818D01*
X626690476Y-313450056D02*
X627452380Y-313450056D01*
X627595238Y-312354818D02*
X628261904Y-312354818D01*
X628261904Y-312354818D02*
X627833333Y-313354818D01*
X628642857Y-312973865D02*
X629404762Y-312973865D01*
X629023809Y-313354818D02*
X629023809Y-312592913D01*
X630595237Y-312307199D02*
X629738095Y-313592913D01*
X631452380Y-313354818D02*
X630880952Y-313354818D01*
X631166666Y-313354818D02*
X631166666Y-312354818D01*
X631166666Y-312354818D02*
X631071428Y-312497675D01*
X631071428Y-312497675D02*
X630976190Y-312592913D01*
X630976190Y-312592913D02*
X630880952Y-312640532D01*
X632071428Y-312354818D02*
X632166666Y-312354818D01*
X632166666Y-312354818D02*
X632261904Y-312402437D01*
X632261904Y-312402437D02*
X632309523Y-312450056D01*
X632309523Y-312450056D02*
X632357142Y-312545294D01*
X632357142Y-312545294D02*
X632404761Y-312735770D01*
X632404761Y-312735770D02*
X632404761Y-312973865D01*
X632404761Y-312973865D02*
X632357142Y-313164341D01*
X632357142Y-313164341D02*
X632309523Y-313259579D01*
X632309523Y-313259579D02*
X632261904Y-313307199D01*
X632261904Y-313307199D02*
X632166666Y-313354818D01*
X632166666Y-313354818D02*
X632071428Y-313354818D01*
X632071428Y-313354818D02*
X631976190Y-313307199D01*
X631976190Y-313307199D02*
X631928571Y-313259579D01*
X631928571Y-313259579D02*
X631880952Y-313164341D01*
X631880952Y-313164341D02*
X631833333Y-312973865D01*
X631833333Y-312973865D02*
X631833333Y-312735770D01*
X631833333Y-312735770D02*
X631880952Y-312545294D01*
X631880952Y-312545294D02*
X631928571Y-312450056D01*
X631928571Y-312450056D02*
X631976190Y-312402437D01*
X631976190Y-312402437D02*
X632071428Y-312354818D01*
X632833333Y-312973865D02*
X633595238Y-312973865D01*
X633214285Y-313354818D02*
X633214285Y-312592913D01*
X477976189Y-312759579D02*
X477928570Y-312807199D01*
X477928570Y-312807199D02*
X477785713Y-312854818D01*
X477785713Y-312854818D02*
X477690475Y-312854818D01*
X477690475Y-312854818D02*
X477547618Y-312807199D01*
X477547618Y-312807199D02*
X477452380Y-312711960D01*
X477452380Y-312711960D02*
X477404761Y-312616722D01*
X477404761Y-312616722D02*
X477357142Y-312426246D01*
X477357142Y-312426246D02*
X477357142Y-312283389D01*
X477357142Y-312283389D02*
X477404761Y-312092913D01*
X477404761Y-312092913D02*
X477452380Y-311997675D01*
X477452380Y-311997675D02*
X477547618Y-311902437D01*
X477547618Y-311902437D02*
X477690475Y-311854818D01*
X477690475Y-311854818D02*
X477785713Y-311854818D01*
X477785713Y-311854818D02*
X477928570Y-311902437D01*
X477928570Y-311902437D02*
X477976189Y-311950056D01*
X478404761Y-312331008D02*
X478738094Y-312331008D01*
X478880951Y-312854818D02*
X478404761Y-312854818D01*
X478404761Y-312854818D02*
X478404761Y-311854818D01*
X478404761Y-311854818D02*
X478880951Y-311854818D01*
X479785713Y-312854818D02*
X479309523Y-312854818D01*
X479309523Y-312854818D02*
X479309523Y-311854818D01*
X480595237Y-312854818D02*
X480119047Y-312854818D01*
X480119047Y-312854818D02*
X480119047Y-311854818D01*
X480690476Y-312950056D02*
X481452380Y-312950056D01*
X482166666Y-311854818D02*
X481690476Y-311854818D01*
X481690476Y-311854818D02*
X481642857Y-312331008D01*
X481642857Y-312331008D02*
X481690476Y-312283389D01*
X481690476Y-312283389D02*
X481785714Y-312235770D01*
X481785714Y-312235770D02*
X482023809Y-312235770D01*
X482023809Y-312235770D02*
X482119047Y-312283389D01*
X482119047Y-312283389D02*
X482166666Y-312331008D01*
X482166666Y-312331008D02*
X482214285Y-312426246D01*
X482214285Y-312426246D02*
X482214285Y-312664341D01*
X482214285Y-312664341D02*
X482166666Y-312759579D01*
X482166666Y-312759579D02*
X482119047Y-312807199D01*
X482119047Y-312807199D02*
X482023809Y-312854818D01*
X482023809Y-312854818D02*
X481785714Y-312854818D01*
X481785714Y-312854818D02*
X481690476Y-312807199D01*
X481690476Y-312807199D02*
X481642857Y-312759579D01*
X482642857Y-312473865D02*
X483404762Y-312473865D01*
X483023809Y-312854818D02*
X483023809Y-312092913D01*
X484595237Y-311807199D02*
X483738095Y-313092913D01*
X485452380Y-312854818D02*
X484880952Y-312854818D01*
X485166666Y-312854818D02*
X485166666Y-311854818D01*
X485166666Y-311854818D02*
X485071428Y-311997675D01*
X485071428Y-311997675D02*
X484976190Y-312092913D01*
X484976190Y-312092913D02*
X484880952Y-312140532D01*
X485833333Y-311950056D02*
X485880952Y-311902437D01*
X485880952Y-311902437D02*
X485976190Y-311854818D01*
X485976190Y-311854818D02*
X486214285Y-311854818D01*
X486214285Y-311854818D02*
X486309523Y-311902437D01*
X486309523Y-311902437D02*
X486357142Y-311950056D01*
X486357142Y-311950056D02*
X486404761Y-312045294D01*
X486404761Y-312045294D02*
X486404761Y-312140532D01*
X486404761Y-312140532D02*
X486357142Y-312283389D01*
X486357142Y-312283389D02*
X485785714Y-312854818D01*
X485785714Y-312854818D02*
X486404761Y-312854818D01*
X486833333Y-312473865D02*
X487595238Y-312473865D01*
X487214285Y-312854818D02*
X487214285Y-312092913D01*
X731047618Y-339854818D02*
X731047618Y-338854818D01*
X731047618Y-338854818D02*
X731619046Y-339854818D01*
X731619046Y-339854818D02*
X731619046Y-338854818D01*
X731952380Y-338854818D02*
X732523808Y-338854818D01*
X732238094Y-339854818D02*
X732238094Y-338854818D01*
X733428570Y-339759579D02*
X733380951Y-339807199D01*
X733380951Y-339807199D02*
X733238094Y-339854818D01*
X733238094Y-339854818D02*
X733142856Y-339854818D01*
X733142856Y-339854818D02*
X732999999Y-339807199D01*
X732999999Y-339807199D02*
X732904761Y-339711960D01*
X732904761Y-339711960D02*
X732857142Y-339616722D01*
X732857142Y-339616722D02*
X732809523Y-339426246D01*
X732809523Y-339426246D02*
X732809523Y-339283389D01*
X732809523Y-339283389D02*
X732857142Y-339092913D01*
X732857142Y-339092913D02*
X732904761Y-338997675D01*
X732904761Y-338997675D02*
X732999999Y-338902437D01*
X732999999Y-338902437D02*
X733142856Y-338854818D01*
X733142856Y-338854818D02*
X733238094Y-338854818D01*
X733238094Y-338854818D02*
X733380951Y-338902437D01*
X733380951Y-338902437D02*
X733428570Y-338950056D01*
X733809523Y-338950056D02*
X733857142Y-338902437D01*
X733857142Y-338902437D02*
X733952380Y-338854818D01*
X733952380Y-338854818D02*
X734190475Y-338854818D01*
X734190475Y-338854818D02*
X734285713Y-338902437D01*
X734285713Y-338902437D02*
X734333332Y-338950056D01*
X734333332Y-338950056D02*
X734380951Y-339045294D01*
X734380951Y-339045294D02*
X734380951Y-339140532D01*
X734380951Y-339140532D02*
X734333332Y-339283389D01*
X734333332Y-339283389D02*
X733761904Y-339854818D01*
X733761904Y-339854818D02*
X734380951Y-339854818D01*
X734571428Y-339950056D02*
X735333332Y-339950056D01*
X735523809Y-339569103D02*
X735999999Y-339569103D01*
X735428571Y-339854818D02*
X735761904Y-338854818D01*
X735761904Y-338854818D02*
X736095237Y-339854818D01*
X259976189Y-357259579D02*
X259928570Y-357307199D01*
X259928570Y-357307199D02*
X259785713Y-357354818D01*
X259785713Y-357354818D02*
X259690475Y-357354818D01*
X259690475Y-357354818D02*
X259547618Y-357307199D01*
X259547618Y-357307199D02*
X259452380Y-357211960D01*
X259452380Y-357211960D02*
X259404761Y-357116722D01*
X259404761Y-357116722D02*
X259357142Y-356926246D01*
X259357142Y-356926246D02*
X259357142Y-356783389D01*
X259357142Y-356783389D02*
X259404761Y-356592913D01*
X259404761Y-356592913D02*
X259452380Y-356497675D01*
X259452380Y-356497675D02*
X259547618Y-356402437D01*
X259547618Y-356402437D02*
X259690475Y-356354818D01*
X259690475Y-356354818D02*
X259785713Y-356354818D01*
X259785713Y-356354818D02*
X259928570Y-356402437D01*
X259928570Y-356402437D02*
X259976189Y-356450056D01*
X260404761Y-356831008D02*
X260738094Y-356831008D01*
X260880951Y-357354818D02*
X260404761Y-357354818D01*
X260404761Y-357354818D02*
X260404761Y-356354818D01*
X260404761Y-356354818D02*
X260880951Y-356354818D01*
X261785713Y-357354818D02*
X261309523Y-357354818D01*
X261309523Y-357354818D02*
X261309523Y-356354818D01*
X262595237Y-357354818D02*
X262119047Y-357354818D01*
X262119047Y-357354818D02*
X262119047Y-356354818D01*
X262690476Y-357450056D02*
X263452380Y-357450056D01*
X263642857Y-356450056D02*
X263690476Y-356402437D01*
X263690476Y-356402437D02*
X263785714Y-356354818D01*
X263785714Y-356354818D02*
X264023809Y-356354818D01*
X264023809Y-356354818D02*
X264119047Y-356402437D01*
X264119047Y-356402437D02*
X264166666Y-356450056D01*
X264166666Y-356450056D02*
X264214285Y-356545294D01*
X264214285Y-356545294D02*
X264214285Y-356640532D01*
X264214285Y-356640532D02*
X264166666Y-356783389D01*
X264166666Y-356783389D02*
X263595238Y-357354818D01*
X263595238Y-357354818D02*
X264214285Y-357354818D01*
X264642857Y-356973865D02*
X265404762Y-356973865D01*
X265023809Y-357354818D02*
X265023809Y-356592913D01*
X266595237Y-356307199D02*
X265738095Y-357592913D01*
X267452380Y-357354818D02*
X266880952Y-357354818D01*
X267166666Y-357354818D02*
X267166666Y-356354818D01*
X267166666Y-356354818D02*
X267071428Y-356497675D01*
X267071428Y-356497675D02*
X266976190Y-356592913D01*
X266976190Y-356592913D02*
X266880952Y-356640532D01*
X268357142Y-356354818D02*
X267880952Y-356354818D01*
X267880952Y-356354818D02*
X267833333Y-356831008D01*
X267833333Y-356831008D02*
X267880952Y-356783389D01*
X267880952Y-356783389D02*
X267976190Y-356735770D01*
X267976190Y-356735770D02*
X268214285Y-356735770D01*
X268214285Y-356735770D02*
X268309523Y-356783389D01*
X268309523Y-356783389D02*
X268357142Y-356831008D01*
X268357142Y-356831008D02*
X268404761Y-356926246D01*
X268404761Y-356926246D02*
X268404761Y-357164341D01*
X268404761Y-357164341D02*
X268357142Y-357259579D01*
X268357142Y-357259579D02*
X268309523Y-357307199D01*
X268309523Y-357307199D02*
X268214285Y-357354818D01*
X268214285Y-357354818D02*
X267976190Y-357354818D01*
X267976190Y-357354818D02*
X267880952Y-357307199D01*
X267880952Y-357307199D02*
X267833333Y-357259579D01*
X268833333Y-356973865D02*
X269595238Y-356973865D01*
X269214285Y-357354818D02*
X269214285Y-356592913D01*
D11*
%TO.C,LG1*%
G36*
X308506059Y-334899998D02*
G01*
X308506059Y-337512917D01*
X298499998Y-337512917D01*
X288493938Y-337512917D01*
X288493938Y-335860606D01*
X289124093Y-335860606D01*
X289124832Y-335991102D01*
X289126362Y-336096576D01*
X289128652Y-336171776D01*
X289131499Y-336210337D01*
X289160916Y-336305173D01*
X289212588Y-336373191D01*
X289279903Y-336411476D01*
X289356251Y-336417112D01*
X289435021Y-336387183D01*
X289470931Y-336360062D01*
X289537079Y-336300988D01*
X289547643Y-335453643D01*
X289558206Y-334606298D01*
X289610434Y-334471019D01*
X289692457Y-334295442D01*
X289795948Y-334144910D01*
X289921737Y-334013493D01*
X290091372Y-333883906D01*
X290275186Y-333790032D01*
X290468585Y-333731848D01*
X290666978Y-333709327D01*
X290865771Y-333722444D01*
X291060373Y-333771175D01*
X291246192Y-333855494D01*
X291418633Y-333975377D01*
X291471024Y-334021985D01*
X291617082Y-334184531D01*
X291727870Y-334364597D01*
X291789714Y-334513979D01*
X291801326Y-334549443D01*
X291810769Y-334583890D01*
X291818271Y-334621801D01*
X291824059Y-334667660D01*
X291828362Y-334725951D01*
X291831408Y-334801156D01*
X291833425Y-334897760D01*
X291834641Y-335020245D01*
X291835285Y-335173094D01*
X291835583Y-335360792D01*
X291835633Y-335416505D01*
X291836361Y-335618766D01*
X291838137Y-335799867D01*
X291840873Y-335956333D01*
X291844480Y-336084688D01*
X291848870Y-336181457D01*
X291853955Y-336243163D01*
X291857109Y-336261238D01*
X291897352Y-336343614D01*
X291959133Y-336396552D01*
X292034243Y-336417581D01*
X292114473Y-336404228D01*
X292185125Y-336360013D01*
X292251274Y-336300890D01*
X292251179Y-335473849D01*
X292250989Y-335250263D01*
X292250072Y-335062541D01*
X292247819Y-334906039D01*
X292243623Y-334776111D01*
X292236877Y-334668112D01*
X292226973Y-334577397D01*
X292213303Y-334499320D01*
X292195261Y-334429236D01*
X292172239Y-334362500D01*
X292143629Y-334294466D01*
X292108824Y-334220489D01*
X292079462Y-334160684D01*
X291952504Y-333947829D01*
X291796915Y-333761613D01*
X291616296Y-333604130D01*
X291414247Y-333477477D01*
X291275313Y-333418254D01*
X292747526Y-333418254D01*
X292747668Y-334245210D01*
X292747842Y-334453426D01*
X292748405Y-334625604D01*
X292749539Y-334766220D01*
X292751425Y-334879745D01*
X292754244Y-334970654D01*
X292758175Y-335043420D01*
X292763401Y-335102516D01*
X292770102Y-335152415D01*
X292778459Y-335197591D01*
X292787858Y-335239217D01*
X292862396Y-335465979D01*
X292971639Y-335677564D01*
X293111661Y-335870132D01*
X293278538Y-336039847D01*
X293468343Y-336182869D01*
X293677153Y-336295362D01*
X293901040Y-336373487D01*
X293962837Y-336388037D01*
X294091259Y-336406777D01*
X294241018Y-336415449D01*
X294395466Y-336414009D01*
X294537954Y-336402414D01*
X294614768Y-336389732D01*
X294854892Y-336318759D01*
X294892555Y-336300722D01*
X296332693Y-336300722D01*
X296391901Y-336359929D01*
X296464905Y-336409431D01*
X296542941Y-336419347D01*
X296622429Y-336389675D01*
X296661521Y-336360062D01*
X296727670Y-336300988D01*
X296738114Y-335453643D01*
X296748558Y-334606298D01*
X296804558Y-334464512D01*
X296900130Y-334272915D01*
X297023881Y-334105178D01*
X297171567Y-333963734D01*
X297338941Y-333851014D01*
X297521757Y-333769449D01*
X297715770Y-333721471D01*
X297916733Y-333709512D01*
X298088476Y-333729211D01*
X298297249Y-333790179D01*
X298487094Y-333885716D01*
X298655113Y-334013186D01*
X298798406Y-334169955D01*
X298914075Y-334353387D01*
X298997574Y-334555660D01*
X299006685Y-334588601D01*
X299014329Y-334628135D01*
X299020714Y-334678365D01*
X299026047Y-334743394D01*
X299030538Y-334827322D01*
X299034393Y-334934254D01*
X299037820Y-335068290D01*
X299041027Y-335233534D01*
X299044221Y-335434088D01*
X299045100Y-335494251D01*
X299057016Y-336321439D01*
X299113847Y-336370288D01*
X299189981Y-336412752D01*
X299270501Y-336415982D01*
X299350492Y-336380170D01*
X299375715Y-336360014D01*
X299441864Y-336300891D01*
X299441864Y-335463722D01*
X299441703Y-335253004D01*
X299441113Y-335078575D01*
X299439939Y-334936215D01*
X299439380Y-334902793D01*
X299838998Y-334902793D01*
X299849613Y-335078047D01*
X299875272Y-335231428D01*
X299948640Y-335455114D01*
X300056320Y-335664767D01*
X300194189Y-335856487D01*
X300358127Y-336026373D01*
X300544012Y-336170526D01*
X300747724Y-336285046D01*
X300965141Y-336366031D01*
X301108124Y-336398217D01*
X301247883Y-336412883D01*
X301406506Y-336415443D01*
X301564317Y-336406263D01*
X301693836Y-336387358D01*
X301932682Y-336318456D01*
X302156388Y-336214749D01*
X302358898Y-336079291D01*
X302437818Y-336012167D01*
X302551035Y-335908692D01*
X302551035Y-336104707D01*
X302551634Y-336195882D01*
X302554966Y-336256475D01*
X302563333Y-336296416D01*
X302579040Y-336325630D01*
X302604389Y-336354045D01*
X302610242Y-336359929D01*
X302683127Y-336410282D01*
X302759494Y-336420625D01*
X302837072Y-336391048D01*
X302888662Y-336348878D01*
X302936646Y-336300894D01*
X303351115Y-336300894D01*
X303417263Y-336360015D01*
X303496516Y-336408471D01*
X303581230Y-336416811D01*
X303663621Y-336389503D01*
X303710124Y-336357194D01*
X303738572Y-336323674D01*
X303742294Y-336296693D01*
X303746161Y-336233287D01*
X303750064Y-336137542D01*
X303753891Y-336013541D01*
X303757531Y-335865370D01*
X303760872Y-335697114D01*
X303763803Y-335512857D01*
X303766214Y-335316684D01*
X303766346Y-335303993D01*
X303776473Y-334320507D01*
X303852883Y-334165962D01*
X303942533Y-334019353D01*
X304054097Y-333902824D01*
X304194820Y-333809170D01*
X304229761Y-333791240D01*
X304284675Y-333766084D01*
X304333919Y-333749814D01*
X304388929Y-333740530D01*
X304461138Y-333736334D01*
X304561980Y-333735326D01*
X304566426Y-333735325D01*
X304669556Y-333736344D01*
X304743832Y-333740644D01*
X304800883Y-333750087D01*
X304852339Y-333766537D01*
X304904944Y-333789560D01*
X305036915Y-333862086D01*
X305140057Y-333945230D01*
X305226039Y-334048649D01*
X305236427Y-334063879D01*
X305266889Y-334109400D01*
X305292540Y-334149729D01*
X305313833Y-334188689D01*
X305331218Y-334230104D01*
X305345146Y-334277796D01*
X305356071Y-334335588D01*
X305364442Y-334407304D01*
X305370712Y-334496766D01*
X305375331Y-334607798D01*
X305378752Y-334744222D01*
X305381426Y-334909863D01*
X305383805Y-335108541D01*
X305386210Y-335332198D01*
X305396888Y-336321416D01*
X305453719Y-336370276D01*
X305525536Y-336408572D01*
X305609505Y-336419329D01*
X305687592Y-336400413D01*
X305691456Y-336398418D01*
X305711474Y-336386790D01*
X305728311Y-336372867D01*
X305742284Y-336353226D01*
X305753709Y-336324443D01*
X305762904Y-336283094D01*
X305770185Y-336225756D01*
X305775870Y-336149005D01*
X305780276Y-336049417D01*
X305783719Y-335923569D01*
X305786517Y-335768037D01*
X305788987Y-335579397D01*
X305791446Y-335354227D01*
X305791864Y-335314122D01*
X305801992Y-334340765D01*
X305877061Y-334188930D01*
X305969681Y-334034891D01*
X306080564Y-333913915D01*
X306214841Y-333820742D01*
X306257733Y-333798726D01*
X306399674Y-333749535D01*
X306558521Y-333725929D01*
X306718923Y-333728988D01*
X306855818Y-333756643D01*
X307013643Y-333826910D01*
X307152489Y-333930085D01*
X307266986Y-334060920D01*
X307351765Y-334214167D01*
X307368529Y-334257750D01*
X307378913Y-334288501D01*
X307387526Y-334318897D01*
X307394534Y-334352878D01*
X307400100Y-334394384D01*
X307404389Y-334447356D01*
X307407565Y-334515734D01*
X307409792Y-334603459D01*
X307411234Y-334714472D01*
X307412057Y-334852712D01*
X307412423Y-335022122D01*
X307412497Y-335226640D01*
X307412484Y-335312168D01*
X307412591Y-335535111D01*
X307413095Y-335721124D01*
X307414109Y-335873789D01*
X307415743Y-335996686D01*
X307418110Y-336093395D01*
X307421323Y-336167496D01*
X307425493Y-336222570D01*
X307430732Y-336262198D01*
X307437153Y-336289959D01*
X307443638Y-336306930D01*
X307495437Y-336375114D01*
X307565770Y-336412127D01*
X307645573Y-336416454D01*
X307725782Y-336386583D01*
X307761361Y-336360014D01*
X307827510Y-336300891D01*
X307827510Y-335332064D01*
X307827419Y-335093891D01*
X307826864Y-334892223D01*
X307825418Y-334723058D01*
X307822657Y-334582389D01*
X307818155Y-334466213D01*
X307811487Y-334370525D01*
X307802227Y-334291320D01*
X307789950Y-334224595D01*
X307774230Y-334166345D01*
X307754643Y-334112564D01*
X307730764Y-334059250D01*
X307702165Y-334002397D01*
X307682223Y-333964271D01*
X307562541Y-333778816D01*
X307413837Y-333620317D01*
X307239215Y-333491051D01*
X307041781Y-333393295D01*
X306824638Y-333329326D01*
X306813602Y-333327111D01*
X306607543Y-333306705D01*
X306400469Y-333324030D01*
X306198633Y-333376960D01*
X306008289Y-333463372D01*
X305835690Y-333581143D01*
X305709650Y-333702015D01*
X305661167Y-333758676D01*
X305625615Y-333804542D01*
X305609815Y-333830733D01*
X305609567Y-333832278D01*
X305596467Y-333826151D01*
X305560912Y-333795879D01*
X305508523Y-333746520D01*
X305452590Y-333690943D01*
X305278678Y-333540145D01*
X305091326Y-333425902D01*
X304893150Y-333349071D01*
X304686767Y-333310512D01*
X304474794Y-333311083D01*
X304351281Y-333329488D01*
X304141164Y-333392113D01*
X303947191Y-333489680D01*
X303773287Y-333618511D01*
X303623375Y-333774925D01*
X303501379Y-333955242D01*
X303411221Y-334155783D01*
X303386794Y-334234096D01*
X303378444Y-334267776D01*
X303371490Y-334305579D01*
X303365807Y-334351340D01*
X303361270Y-334408893D01*
X303357755Y-334482077D01*
X303355137Y-334574724D01*
X303353291Y-334690673D01*
X303352093Y-334833757D01*
X303351418Y-335007814D01*
X303351142Y-335216677D01*
X303351115Y-335332065D01*
X303351115Y-336300894D01*
X302936646Y-336300894D01*
X302958921Y-336278619D01*
X302952305Y-335432331D01*
X302951521Y-335332065D01*
X302945689Y-334586043D01*
X302878986Y-334393619D01*
X302775366Y-334150626D01*
X302642919Y-333935260D01*
X302482541Y-333748514D01*
X302295130Y-333591380D01*
X302081585Y-333464854D01*
X302010038Y-333431922D01*
X301776201Y-333351818D01*
X301539901Y-333310087D01*
X301304778Y-333305055D01*
X301074474Y-333335047D01*
X300852628Y-333398390D01*
X300642881Y-333493409D01*
X300448875Y-333618429D01*
X300274248Y-333771776D01*
X300122643Y-333951776D01*
X299997699Y-334156754D01*
X299903058Y-334385035D01*
X299897064Y-334403746D01*
X299863102Y-334551276D01*
X299843621Y-334722414D01*
X299838998Y-334902793D01*
X299439380Y-334902793D01*
X299438023Y-334821705D01*
X299435208Y-334730823D01*
X299431338Y-334659350D01*
X299426255Y-334603067D01*
X299419803Y-334557751D01*
X299411824Y-334519185D01*
X299405883Y-334496237D01*
X299317991Y-334247901D01*
X299198793Y-334023734D01*
X299049779Y-333825477D01*
X298872441Y-333654870D01*
X298668270Y-333513656D01*
X298487536Y-333423408D01*
X298255509Y-333345778D01*
X298020074Y-333306482D01*
X297785097Y-333304002D01*
X297554444Y-333336821D01*
X297331977Y-333403420D01*
X297121564Y-333502282D01*
X296927067Y-333631889D01*
X296752353Y-333790722D01*
X296601286Y-333977265D01*
X296477732Y-334189998D01*
X296464617Y-334217912D01*
X296433957Y-334286800D01*
X296408439Y-334350709D01*
X296387592Y-334414120D01*
X296370948Y-334481515D01*
X296358038Y-334557376D01*
X296348392Y-334646183D01*
X296341540Y-334752419D01*
X296337014Y-334880564D01*
X296334345Y-335035101D01*
X296333063Y-335220509D01*
X296332698Y-335441272D01*
X296332693Y-335477764D01*
X296332693Y-336300722D01*
X294892555Y-336300722D01*
X295076678Y-336212545D01*
X295277450Y-336073209D01*
X295454531Y-335902871D01*
X295605245Y-335703649D01*
X295703828Y-335527398D01*
X295727265Y-335477764D01*
X295739242Y-335452400D01*
X295768733Y-335383819D01*
X295792840Y-335317092D01*
X295812103Y-335247652D01*
X295827062Y-335170934D01*
X295838258Y-335082374D01*
X295846230Y-334977405D01*
X295851518Y-334851462D01*
X295854663Y-334699980D01*
X295856203Y-334518394D01*
X295856680Y-334302138D01*
X295856697Y-334235007D01*
X295856697Y-333418101D01*
X295790548Y-333358970D01*
X295712793Y-333311595D01*
X295631108Y-333300751D01*
X295553532Y-333327291D01*
X295545109Y-333332869D01*
X295519869Y-333352182D01*
X295499091Y-333374037D01*
X295482341Y-333402332D01*
X295469187Y-333440966D01*
X295459197Y-333493836D01*
X295451937Y-333564842D01*
X295446977Y-333657880D01*
X295443882Y-333776850D01*
X295442222Y-333925650D01*
X295441563Y-334108178D01*
X295441465Y-334267181D01*
X295441221Y-334480973D01*
X295440174Y-334658805D01*
X295437856Y-334805225D01*
X295433798Y-334924784D01*
X295427529Y-335022029D01*
X295418582Y-335101509D01*
X295406487Y-335167774D01*
X295390775Y-335225373D01*
X295370976Y-335278854D01*
X295346622Y-335332766D01*
X295327584Y-335371271D01*
X295217208Y-335547177D01*
X295077619Y-335699941D01*
X294914188Y-335826218D01*
X294732288Y-335922661D01*
X294537289Y-335985922D01*
X294334563Y-336012655D01*
X294297048Y-336013330D01*
X294095462Y-335994176D01*
X293899987Y-335939065D01*
X293716556Y-335851523D01*
X293551100Y-335735075D01*
X293409551Y-335593249D01*
X293297840Y-335429570D01*
X293289846Y-335414638D01*
X293256769Y-335350200D01*
X293229480Y-335291742D01*
X293207423Y-335234615D01*
X293190043Y-335174171D01*
X293176783Y-335105764D01*
X293167087Y-335024745D01*
X293160401Y-334926467D01*
X293156168Y-334806282D01*
X293153832Y-334659543D01*
X293152838Y-334481602D01*
X293152630Y-334267811D01*
X293152630Y-334267181D01*
X293152433Y-334057198D01*
X293151555Y-333883825D01*
X293149563Y-333743166D01*
X293146024Y-333631322D01*
X293140507Y-333544394D01*
X293132578Y-333478485D01*
X293121806Y-333429696D01*
X293107757Y-333394129D01*
X293090000Y-333367885D01*
X293068102Y-333347067D01*
X293048986Y-333332869D01*
X292972176Y-333301584D01*
X292891657Y-333307322D01*
X292817462Y-333349000D01*
X292806733Y-333359046D01*
X292747526Y-333418254D01*
X291275313Y-333418254D01*
X291194368Y-333383750D01*
X290960260Y-333325047D01*
X290715523Y-333303462D01*
X290611432Y-333305913D01*
X290429778Y-333323408D01*
X290271164Y-333356137D01*
X290119734Y-333408016D01*
X290023204Y-333451178D01*
X289812654Y-333574501D01*
X289623150Y-333729796D01*
X289458631Y-333912312D01*
X289323039Y-334117298D01*
X289220314Y-334340004D01*
X289179114Y-334468832D01*
X289167813Y-334513385D01*
X289158558Y-334558570D01*
X289151074Y-334609147D01*
X289145084Y-334669873D01*
X289140315Y-334745508D01*
X289136490Y-334840812D01*
X289133334Y-334960544D01*
X289130573Y-335109462D01*
X289127931Y-335292327D01*
X289126903Y-335371518D01*
X289125100Y-335545561D01*
X289124173Y-335710341D01*
X289124093Y-335860606D01*
X288493938Y-335860606D01*
X288493938Y-334899998D01*
X288493938Y-332287080D01*
X298499998Y-332287080D01*
X308506059Y-332287080D01*
X308506059Y-334899998D01*
G37*
G36*
X301607311Y-333732506D02*
G01*
X301806915Y-333789620D01*
X301897600Y-333828415D01*
X301987979Y-333878742D01*
X302078039Y-333945780D01*
X302178107Y-334037390D01*
X302198300Y-334057418D01*
X302309340Y-334178788D01*
X302392383Y-334296035D01*
X302455774Y-334422933D01*
X302504969Y-334563554D01*
X302525898Y-334668053D01*
X302536151Y-334796343D01*
X302535782Y-334933152D01*
X302524847Y-335063209D01*
X302503402Y-335171242D01*
X302502756Y-335173443D01*
X302424519Y-335370238D01*
X302314998Y-335545411D01*
X302178442Y-335696432D01*
X302019102Y-335820774D01*
X301841229Y-335915909D01*
X301649072Y-335979306D01*
X301446881Y-336008438D01*
X301238908Y-336000775D01*
X301140661Y-335983807D01*
X300941755Y-335920464D01*
X300760086Y-335822700D01*
X300599638Y-335694375D01*
X300464394Y-335539349D01*
X300358340Y-335361483D01*
X300285460Y-335164637D01*
X300282157Y-335152027D01*
X300247330Y-334942505D01*
X300249489Y-334740904D01*
X300285462Y-334549824D01*
X300352075Y-334371865D01*
X300446156Y-334209627D01*
X300564533Y-334065709D01*
X300704032Y-333942711D01*
X300861480Y-333843232D01*
X301033705Y-333769873D01*
X301217534Y-333725232D01*
X301409794Y-333711910D01*
X301607311Y-333732506D01*
G37*
%TO.C,SL1*%
D12*
X440524999Y-329699999D02*
X450524999Y-329699999D01*
X450524999Y-339699999D01*
X440524999Y-339699999D01*
X440524999Y-329699999D01*
G36*
X440524999Y-329699999D02*
G01*
X450524999Y-329699999D01*
X450524999Y-339699999D01*
X440524999Y-339699999D01*
X440524999Y-329699999D01*
G37*
%TO.C,J1*%
D13*
X148189999Y-315889999D02*
X159909999Y-315889999D01*
X148189999Y-334699999D02*
X148189999Y-315889999D01*
X148189999Y-334699999D02*
X148189999Y-353509999D01*
X148189999Y-353509999D02*
X159909999Y-353509999D01*
X155409999Y-317309999D02*
X155409999Y-334699999D01*
X155409999Y-352089999D02*
X155409999Y-334699999D01*
X158999999Y-318449999D02*
X159599999Y-318149999D01*
X159599999Y-318149999D02*
X159599999Y-318749999D01*
X159599999Y-318749999D02*
X158999999Y-318449999D01*
X159909999Y-315889999D02*
X159909999Y-317309999D01*
X159909999Y-317309999D02*
X155409999Y-317309999D01*
X159909999Y-352089999D02*
X155409999Y-352089999D01*
X159909999Y-353509999D02*
X159909999Y-352089999D01*
X148799999Y-318199999D02*
X154299999Y-318199999D01*
X154299999Y-318699999D01*
X148799999Y-318699999D01*
X148799999Y-318199999D01*
X148799999Y-320699999D02*
X154299999Y-320699999D01*
X154299999Y-321199999D01*
X148799999Y-321199999D01*
X148799999Y-320699999D01*
X148799999Y-323199999D02*
X154299999Y-323199999D01*
X154299999Y-323699999D01*
X148799999Y-323699999D01*
X148799999Y-323199999D01*
X148799999Y-325699999D02*
X154299999Y-325699999D01*
X154299999Y-326199999D01*
X148799999Y-326199999D01*
X148799999Y-325699999D01*
X148799999Y-328199999D02*
X154299999Y-328199999D01*
X154299999Y-328699999D01*
X148799999Y-328699999D01*
X148799999Y-328199999D01*
X148799999Y-330699999D02*
X154299999Y-330699999D01*
X154299999Y-331199999D01*
X148799999Y-331199999D01*
X148799999Y-330699999D01*
X148799999Y-333199999D02*
X154299999Y-333199999D01*
X154299999Y-333699999D01*
X148799999Y-333699999D01*
X148799999Y-333199999D01*
X148799999Y-335699999D02*
X154299999Y-335699999D01*
X154299999Y-336199999D01*
X148799999Y-336199999D01*
X148799999Y-335699999D01*
X148799999Y-338199999D02*
X154299999Y-338199999D01*
X154299999Y-338699999D01*
X148799999Y-338699999D01*
X148799999Y-338199999D01*
X148799999Y-340699999D02*
X154299999Y-340699999D01*
X154299999Y-341199999D01*
X148799999Y-341199999D01*
X148799999Y-340699999D01*
X148799999Y-343199999D02*
X154299999Y-343199999D01*
X154299999Y-343699999D01*
X148799999Y-343699999D01*
X148799999Y-343199999D01*
X148799999Y-345699999D02*
X154299999Y-345699999D01*
X154299999Y-346199999D01*
X148799999Y-346199999D01*
X148799999Y-345699999D01*
X148799999Y-348199999D02*
X154299999Y-348199999D01*
X154299999Y-348699999D01*
X148799999Y-348699999D01*
X148799999Y-348199999D01*
X148799999Y-350699999D02*
X154299999Y-350699999D01*
X154299999Y-351199999D01*
X148799999Y-351199999D01*
X148799999Y-350699999D01*
%TD*%
M02*
