%TF.GenerationSoftware,KiCad,Pcbnew,10.0.3*%
%TF.CreationDate,2026-06-02T09:24:12+05:30*%
%TF.ProjectId,Nunam_Cell_Harness,4e756e61-6d5f-4436-956c-6c5f4861726e,1v0*%
%TF.SameCoordinates,Original*%
%TF.FileFunction,Copper,L2,Bot*%
%TF.FilePolarity,Positive*%
%FSLAX46Y46*%
G04 Gerber Fmt 4.6, Leading zero omitted, Abs format (unit mm)*
G04 Created by KiCad (PCBNEW 10.0.3) date 2026-06-02 09:24:12*
%MOMM*%
%LPD*%
G01*
G04 APERTURE LIST*
G04 Aperture macros list*
%AMRoundRect*
0 Rectangle with rounded corners*
0 $1 Rounding radius*
0 $2 $3 $4 $5 $6 $7 $8 $9 X,Y pos of 4 corners*
0 Add a 4 corners polygon primitive as box body*
4,1,4,$2,$3,$4,$5,$6,$7,$8,$9,$2,$3,0*
0 Add four circle primitives for the rounded corners*
1,1,$1+$1,$2,$3*
1,1,$1+$1,$4,$5*
1,1,$1+$1,$6,$7*
1,1,$1+$1,$8,$9*
0 Add four rect primitives between the rounded corners*
20,1,$1+$1,$2,$3,$4,$5,0*
20,1,$1+$1,$4,$5,$6,$7,0*
20,1,$1+$1,$6,$7,$8,$9,0*
20,1,$1+$1,$8,$9,$2,$3,0*%
G04 Aperture macros list end*
%ADD10C,0.300000*%
%TA.AperFunction,NonConductor*%
%ADD11C,0.300000*%
%TD*%
%TA.AperFunction,ComponentPad*%
%ADD12RoundRect,0.450000X-1.050000X-1.050000X1.050000X-1.050000X1.050000X1.050000X-1.050000X1.050000X0*%
%TD*%
%TA.AperFunction,ComponentPad*%
%ADD13RoundRect,0.250000X-0.725000X0.600000X-0.725000X-0.600000X0.725000X-0.600000X0.725000X0.600000X0*%
%TD*%
%TA.AperFunction,ComponentPad*%
%ADD14O,1.950000X1.700000*%
%TD*%
G04 APERTURE END LIST*
D10*
D11*
X742159773Y-351785911D02*
X741659773Y-353285911D01*
X741659773Y-353285911D02*
X741159773Y-351785911D01*
X740016917Y-353285911D02*
X740016917Y-352500197D01*
X740016917Y-352500197D02*
X740088345Y-352357340D01*
X740088345Y-352357340D02*
X740231202Y-352285911D01*
X740231202Y-352285911D02*
X740516917Y-352285911D01*
X740516917Y-352285911D02*
X740659774Y-352357340D01*
X740016917Y-353214483D02*
X740159774Y-353285911D01*
X740159774Y-353285911D02*
X740516917Y-353285911D01*
X740516917Y-353285911D02*
X740659774Y-353214483D01*
X740659774Y-353214483D02*
X740731202Y-353071625D01*
X740731202Y-353071625D02*
X740731202Y-352928768D01*
X740731202Y-352928768D02*
X740659774Y-352785911D01*
X740659774Y-352785911D02*
X740516917Y-352714483D01*
X740516917Y-352714483D02*
X740159774Y-352714483D01*
X740159774Y-352714483D02*
X740016917Y-352643054D01*
X739302631Y-353285911D02*
X739302631Y-352285911D01*
X739302631Y-351785911D02*
X739374059Y-351857340D01*
X739374059Y-351857340D02*
X739302631Y-351928768D01*
X739302631Y-351928768D02*
X739231202Y-351857340D01*
X739231202Y-351857340D02*
X739302631Y-351785911D01*
X739302631Y-351785911D02*
X739302631Y-351928768D01*
X738588345Y-353285911D02*
X738588345Y-351785911D01*
X738588345Y-352357340D02*
X738445488Y-352285911D01*
X738445488Y-352285911D02*
X738159773Y-352285911D01*
X738159773Y-352285911D02*
X738016916Y-352357340D01*
X738016916Y-352357340D02*
X737945488Y-352428768D01*
X737945488Y-352428768D02*
X737874059Y-352571625D01*
X737874059Y-352571625D02*
X737874059Y-353000197D01*
X737874059Y-353000197D02*
X737945488Y-353143054D01*
X737945488Y-353143054D02*
X738016916Y-353214483D01*
X738016916Y-353214483D02*
X738159773Y-353285911D01*
X738159773Y-353285911D02*
X738445488Y-353285911D01*
X738445488Y-353285911D02*
X738588345Y-353214483D01*
X737231202Y-353285911D02*
X737231202Y-351785911D01*
X736588345Y-353285911D02*
X736588345Y-352500197D01*
X736588345Y-352500197D02*
X736659773Y-352357340D01*
X736659773Y-352357340D02*
X736802630Y-352285911D01*
X736802630Y-352285911D02*
X737016916Y-352285911D01*
X737016916Y-352285911D02*
X737159773Y-352357340D01*
X737159773Y-352357340D02*
X737231202Y-352428768D01*
X735231202Y-353285911D02*
X735231202Y-352500197D01*
X735231202Y-352500197D02*
X735302630Y-352357340D01*
X735302630Y-352357340D02*
X735445487Y-352285911D01*
X735445487Y-352285911D02*
X735731202Y-352285911D01*
X735731202Y-352285911D02*
X735874059Y-352357340D01*
X735231202Y-353214483D02*
X735374059Y-353285911D01*
X735374059Y-353285911D02*
X735731202Y-353285911D01*
X735731202Y-353285911D02*
X735874059Y-353214483D01*
X735874059Y-353214483D02*
X735945487Y-353071625D01*
X735945487Y-353071625D02*
X735945487Y-352928768D01*
X735945487Y-352928768D02*
X735874059Y-352785911D01*
X735874059Y-352785911D02*
X735731202Y-352714483D01*
X735731202Y-352714483D02*
X735374059Y-352714483D01*
X735374059Y-352714483D02*
X735231202Y-352643054D01*
X734659773Y-352285911D02*
X734302630Y-353285911D01*
X734302630Y-353285911D02*
X733945487Y-352285911D01*
X741945488Y-355700827D02*
X741945488Y-354200827D01*
X741088345Y-355700827D02*
X741731202Y-354843684D01*
X741088345Y-354200827D02*
X741945488Y-355057970D01*
X740445488Y-355700827D02*
X740445488Y-354200827D01*
X739802631Y-355700827D02*
X739802631Y-354915113D01*
X739802631Y-354915113D02*
X739874059Y-354772256D01*
X739874059Y-354772256D02*
X740016916Y-354700827D01*
X740016916Y-354700827D02*
X740231202Y-354700827D01*
X740231202Y-354700827D02*
X740374059Y-354772256D01*
X740374059Y-354772256D02*
X740445488Y-354843684D01*
X738445488Y-355700827D02*
X738445488Y-354915113D01*
X738445488Y-354915113D02*
X738516916Y-354772256D01*
X738516916Y-354772256D02*
X738659773Y-354700827D01*
X738659773Y-354700827D02*
X738945488Y-354700827D01*
X738945488Y-354700827D02*
X739088345Y-354772256D01*
X738445488Y-355629399D02*
X738588345Y-355700827D01*
X738588345Y-355700827D02*
X738945488Y-355700827D01*
X738945488Y-355700827D02*
X739088345Y-355629399D01*
X739088345Y-355629399D02*
X739159773Y-355486541D01*
X739159773Y-355486541D02*
X739159773Y-355343684D01*
X739159773Y-355343684D02*
X739088345Y-355200827D01*
X739088345Y-355200827D02*
X738945488Y-355129399D01*
X738945488Y-355129399D02*
X738588345Y-355129399D01*
X738588345Y-355129399D02*
X738445488Y-355057970D01*
X737945487Y-354700827D02*
X737374059Y-354700827D01*
X737731202Y-354200827D02*
X737731202Y-355486541D01*
X737731202Y-355486541D02*
X737659773Y-355629399D01*
X737659773Y-355629399D02*
X737516916Y-355700827D01*
X737516916Y-355700827D02*
X737374059Y-355700827D01*
X736874059Y-355700827D02*
X736874059Y-354700827D01*
X736874059Y-354986541D02*
X736802630Y-354843684D01*
X736802630Y-354843684D02*
X736731202Y-354772256D01*
X736731202Y-354772256D02*
X736588344Y-354700827D01*
X736588344Y-354700827D02*
X736445487Y-354700827D01*
X735945488Y-355700827D02*
X735945488Y-354700827D01*
X735945488Y-354200827D02*
X736016916Y-354272256D01*
X736016916Y-354272256D02*
X735945488Y-354343684D01*
X735945488Y-354343684D02*
X735874059Y-354272256D01*
X735874059Y-354272256D02*
X735945488Y-354200827D01*
X735945488Y-354200827D02*
X735945488Y-354343684D01*
D12*
%TO.P,J15,1,Pin_1_1*%
%TO.N,Net-(J1-Pin_7)*%
X733499999Y-332699999D03*
%TD*%
%TO.P,J3,1,Pin_1_1*%
%TO.N,Net-(J1-Pin_13)*%
X189999999Y-361899999D03*
%TD*%
%TO.P,J7,1,Pin_1_1*%
%TO.N,Net-(J1-Pin_11)*%
X408999999Y-361899999D03*
%TD*%
%TO.P,J2,1,Pin_1_1*%
%TO.N,Net-(J1-Pin_14)*%
X178500000Y-353899999D03*
%TD*%
%TO.P,J9,1,Pin_1_1*%
%TO.N,Net-(J1-Pin_10)*%
X554999999Y-361899999D03*
%TD*%
%TO.P,J11,1,Pin_1_1*%
%TO.N,Net-(J1-Pin_9)*%
X700999999Y-361899999D03*
%TD*%
%TO.P,J12,1,Pin_1_1*%
%TO.N,Net-(J1-Pin_5)*%
X217999999Y-332699999D03*
%TD*%
D13*
%TO.P,J1,1,Pin_1_1*%
%TO.N,Net-(J1-Pin_1)*%
X157499999Y-318449999D03*
D14*
%TO.P,J1,2,Pin_2_2*%
%TO.N,Net-(J1-Pin_2)*%
X157499999Y-320949999D03*
%TO.P,J1,3,Pin_3_3*%
%TO.N,Net-(J1-Pin_3)*%
X157499999Y-323449999D03*
%TO.P,J1,4,Pin_4_4*%
%TO.N,Net-(J1-Pin_4)*%
X157499999Y-325949999D03*
%TO.P,J1,5,Pin_5_5*%
%TO.N,Net-(J1-Pin_5)*%
X157499999Y-328449999D03*
%TO.P,J1,6,Pin_6_6*%
%TO.N,Net-(J1-Pin_6)*%
X157499999Y-330949999D03*
%TO.P,J1,7,Pin_7_7*%
%TO.N,Net-(J1-Pin_7)*%
X157499999Y-333449999D03*
%TO.P,J1,8,Pin_8_8*%
%TO.N,Net-(J1-Pin_8)*%
X157499999Y-335949999D03*
%TO.P,J1,9,Pin_9_9*%
%TO.N,Net-(J1-Pin_9)*%
X157499999Y-338449999D03*
%TO.P,J1,10,Pin_10_10*%
%TO.N,Net-(J1-Pin_10)*%
X157499999Y-340949999D03*
%TO.P,J1,11,Pin_11_11*%
%TO.N,Net-(J1-Pin_11)*%
X157499999Y-343449999D03*
%TO.P,J1,12,Pin_12_12*%
%TO.N,Net-(J1-Pin_12)*%
X157499999Y-345949999D03*
%TO.P,J1,13,Pin_13_13*%
%TO.N,Net-(J1-Pin_13)*%
X157499999Y-348449999D03*
%TO.P,J1,14,Pin_14_14*%
%TO.N,Net-(J1-Pin_14)*%
X157499999Y-350949999D03*
%TD*%
D12*
%TO.P,J4,1,Pin_1_1*%
%TO.N,Net-(J1-Pin_1)*%
X189999999Y-307499999D03*
%TD*%
%TO.P,J6,1,Pin_1_1*%
%TO.N,Net-(J1-Pin_2)*%
X335999999Y-307499999D03*
%TD*%
%TO.P,J13,1,Pin_1_1*%
%TO.N,Net-(J1-Pin_6)*%
X217999999Y-336699999D03*
%TD*%
%TO.P,J10,1,Pin_1_1*%
%TO.N,Net-(J1-Pin_4)*%
X627999999Y-307499999D03*
%TD*%
%TO.P,J8,1,Pin_1_1*%
%TO.N,Net-(J1-Pin_3)*%
X481999999Y-307499999D03*
%TD*%
%TO.P,J14,1,Pin_1_1*%
%TO.N,Net-(J1-Pin_8)*%
X733499999Y-336699999D03*
%TD*%
%TO.P,J5,1,Pin_1_1*%
%TO.N,Net-(J1-Pin_12)*%
X262999999Y-361899999D03*
%TD*%
M02*
