%TF.GenerationSoftware,KiCad,Pcbnew,10.0.3*%
%TF.CreationDate,2026-05-30T17:13:28+05:30*%
%TF.ProjectId,Nunam_Cell_Harness,4e756e61-6d5f-4436-956c-6c5f4861726e,1v0*%
%TF.SameCoordinates,Original*%
%TF.FileFunction,Copper,L1,Top*%
%TF.FilePolarity,Positive*%
%FSLAX46Y46*%
G04 Gerber Fmt 4.6, Leading zero omitted, Abs format (unit mm)*
G04 Created by KiCad (PCBNEW 10.0.3) date 2026-05-30 17:13:28*
%MOMM*%
%LPD*%
G01*
G04 APERTURE LIST*
G04 Aperture macros list*
%AMRoundRect*
0 Rectangle with rounded corners*
0 $1 Rounding radius*
0 $2 $3 $4 $5 $6 $7 $8 $9 X,Y pos of 4 corners*
0 Add a 4 corners polygon primitive as box body*
4,1,4,$2,$3,$4,$5,$6,$7,$8,$9,$2,$3,0*
0 Add four circle primitives for the rounded corners*
1,1,$1+$1,$2,$3*
1,1,$1+$1,$4,$5*
1,1,$1+$1,$6,$7*
1,1,$1+$1,$8,$9*
0 Add four rect primitives between the rounded corners*
20,1,$1+$1,$2,$3,$4,$5,0*
20,1,$1+$1,$4,$5,$6,$7,0*
20,1,$1+$1,$6,$7,$8,$9,0*
20,1,$1+$1,$8,$9,$2,$3,0*%
G04 Aperture macros list end*
%TA.AperFunction,ComponentPad*%
%ADD10RoundRect,0.450000X-1.050000X-1.050000X1.050000X-1.050000X1.050000X1.050000X-1.050000X1.050000X0*%
%TD*%
%TA.AperFunction,ComponentPad*%
%ADD11RoundRect,0.250000X-0.725000X0.600000X-0.725000X-0.600000X0.725000X-0.600000X0.725000X0.600000X0*%
%TD*%
%TA.AperFunction,ComponentPad*%
%ADD12O,1.950000X1.700000*%
%TD*%
%TA.AperFunction,Conductor*%
%ADD13C,0.350000*%
%TD*%
%TA.AperFunction,Conductor*%
%ADD14C,0.200000*%
%TD*%
G04 APERTURE END LIST*
D10*
%TO.P,J15,1,Pin_1_1*%
%TO.N,Net-(J1-Pin_7)*%
X733499999Y-332699999D03*
%TD*%
%TO.P,J3,1,Pin_1_1*%
%TO.N,Net-(J1-Pin_13)*%
X189999999Y-361899999D03*
%TD*%
%TO.P,J7,1,Pin_1_1*%
%TO.N,Net-(J1-Pin_11)*%
X408999999Y-361899999D03*
%TD*%
%TO.P,J2,1,Pin_1_1*%
%TO.N,Net-(J1-Pin_14)*%
X178500000Y-353899999D03*
%TD*%
%TO.P,J9,1,Pin_1_1*%
%TO.N,Net-(J1-Pin_10)*%
X554999999Y-361899999D03*
%TD*%
%TO.P,J11,1,Pin_1_1*%
%TO.N,Net-(J1-Pin_9)*%
X700999999Y-361899999D03*
%TD*%
%TO.P,J12,1,Pin_1_1*%
%TO.N,Net-(J1-Pin_5)*%
X217999999Y-332699999D03*
%TD*%
D11*
%TO.P,J1,1,Pin_1_1*%
%TO.N,Net-(J1-Pin_1)*%
X157499999Y-318449999D03*
D12*
%TO.P,J1,2,Pin_2_2*%
%TO.N,Net-(J1-Pin_2)*%
X157499999Y-320949999D03*
%TO.P,J1,3,Pin_3_3*%
%TO.N,Net-(J1-Pin_3)*%
X157499999Y-323449999D03*
%TO.P,J1,4,Pin_4_4*%
%TO.N,Net-(J1-Pin_4)*%
X157499999Y-325949999D03*
%TO.P,J1,5,Pin_5_5*%
%TO.N,Net-(J1-Pin_5)*%
X157499999Y-328449999D03*
%TO.P,J1,6,Pin_6_6*%
%TO.N,Net-(J1-Pin_6)*%
X157499999Y-330949999D03*
%TO.P,J1,7,Pin_7_7*%
%TO.N,Net-(J1-Pin_7)*%
X157499999Y-333449999D03*
%TO.P,J1,8,Pin_8_8*%
%TO.N,Net-(J1-Pin_8)*%
X157499999Y-335949999D03*
%TO.P,J1,9,Pin_9_9*%
%TO.N,Net-(J1-Pin_9)*%
X157499999Y-338449999D03*
%TO.P,J1,10,Pin_10_10*%
%TO.N,Net-(J1-Pin_10)*%
X157499999Y-340949999D03*
%TO.P,J1,11,Pin_11_11*%
%TO.N,Net-(J1-Pin_11)*%
X157499999Y-343449999D03*
%TO.P,J1,12,Pin_12_12*%
%TO.N,Net-(J1-Pin_12)*%
X157499999Y-345949999D03*
%TO.P,J1,13,Pin_13_13*%
%TO.N,Net-(J1-Pin_13)*%
X157499999Y-348449999D03*
%TO.P,J1,14,Pin_14_14*%
%TO.N,Net-(J1-Pin_14)*%
X157499999Y-350949999D03*
%TD*%
D10*
%TO.P,J4,1,Pin_1_1*%
%TO.N,Net-(J1-Pin_1)*%
X189999999Y-307499999D03*
%TD*%
%TO.P,J6,1,Pin_1_1*%
%TO.N,Net-(J1-Pin_2)*%
X335999999Y-307499999D03*
%TD*%
%TO.P,J13,1,Pin_1_1*%
%TO.N,Net-(J1-Pin_6)*%
X217999999Y-336699999D03*
%TD*%
%TO.P,J10,1,Pin_1_1*%
%TO.N,Net-(J1-Pin_4)*%
X627999999Y-307499999D03*
%TD*%
%TO.P,J8,1,Pin_1_1*%
%TO.N,Net-(J1-Pin_3)*%
X481999999Y-307499999D03*
%TD*%
%TO.P,J14,1,Pin_1_1*%
%TO.N,Net-(J1-Pin_8)*%
X733499999Y-336699999D03*
%TD*%
%TO.P,J5,1,Pin_1_1*%
%TO.N,Net-(J1-Pin_12)*%
X262999999Y-361899999D03*
%TD*%
%TO.N,Net-(J1-Pin_7)*%
D13*
X168949999Y-333449999D02*
X180499999Y-321899999D01*
X157499999Y-333449999D02*
X168949999Y-333449999D01*
X196999999Y-321899999D02*
X215499999Y-340399999D01*
X215499999Y-340399999D02*
X223499999Y-340399999D01*
X428999999Y-320399999D02*
X433499999Y-324899999D01*
X470499999Y-324899999D02*
X475499999Y-319899999D01*
X710499999Y-319899999D02*
X723299999Y-332699999D01*
X475499999Y-319899999D02*
X710499999Y-319899999D01*
X223499999Y-340399999D02*
X243499999Y-320399999D01*
X433499999Y-324899999D02*
X470499999Y-324899999D01*
X723299999Y-332699999D02*
X733499999Y-332699999D01*
X243499999Y-320399999D02*
X428999999Y-320399999D01*
X180499999Y-321899999D02*
X196999999Y-321899999D01*
%TO.N,Net-(J1-Pin_13)*%
X189999999Y-357899999D02*
X189999999Y-361899999D01*
D14*
X189999999Y-357899999D02*
X189999999Y-356399999D01*
D13*
X185499999Y-350899999D02*
X189999999Y-355399999D01*
X175499999Y-350899999D02*
X185499999Y-350899999D01*
X166999999Y-346399999D02*
X170999999Y-346399999D01*
X170999999Y-346399999D02*
X175499999Y-350899999D01*
X164949999Y-348449999D02*
X166999999Y-346399999D01*
X189999999Y-355399999D02*
X189999999Y-356399999D01*
X157499999Y-348449999D02*
X164949999Y-348449999D01*
%TO.N,Net-(J1-Pin_11)*%
X157499999Y-343449999D02*
X172549999Y-343449999D01*
X393999999Y-355899999D02*
X401999999Y-355899999D01*
X408999999Y-358899999D02*
X408999999Y-361899999D01*
X172549999Y-343449999D02*
X177999999Y-348899999D01*
D14*
X401999999Y-355899999D02*
X403499999Y-355899999D01*
D13*
X405999999Y-355899999D02*
X408999999Y-358899999D01*
X177999999Y-348899999D02*
X189499999Y-348899999D01*
X403499999Y-355899999D02*
X405999999Y-355899999D01*
X391499999Y-353399999D02*
X393999999Y-355899999D01*
X193999999Y-353399999D02*
X391499999Y-353399999D01*
X189499999Y-348899999D02*
X193999999Y-353399999D01*
%TO.N,Net-(J1-Pin_14)*%
X157499999Y-350949999D02*
X161049999Y-350949999D01*
X172999999Y-353899999D02*
X178500000Y-353899999D01*
X161049999Y-350949999D02*
X165499999Y-355399999D01*
X168999999Y-355399999D02*
X171499999Y-355399999D01*
D14*
X167499999Y-355399999D02*
X168999999Y-355399999D01*
D13*
X171499999Y-355399999D02*
X172999999Y-353899999D01*
X165499999Y-355399999D02*
X167499999Y-355399999D01*
%TO.N,Net-(J1-Pin_10)*%
X452999999Y-351899999D02*
X539999999Y-351899999D01*
X194499999Y-351899999D02*
X437499999Y-351899999D01*
X442375000Y-347024998D02*
X448124998Y-347024998D01*
X437499999Y-351899999D02*
X442375000Y-347024998D01*
X543499999Y-355399999D02*
X546999999Y-355399999D01*
X548499999Y-355399999D02*
X551999999Y-355399999D01*
X539999999Y-351899999D02*
X543499999Y-355399999D01*
X171549999Y-340949999D02*
X178499999Y-347899999D01*
X554999999Y-358399999D02*
X554999999Y-361899999D01*
X157499999Y-340949999D02*
X171549999Y-340949999D01*
D14*
X546999999Y-355399999D02*
X548499999Y-355399999D01*
D13*
X190499999Y-347899999D02*
X194499999Y-351899999D01*
X178499999Y-347899999D02*
X190499999Y-347899999D01*
X551999999Y-355399999D02*
X554999999Y-358399999D01*
X448124998Y-347024998D02*
X452999999Y-351899999D01*
%TO.N,Net-(J1-Pin_9)*%
X698499999Y-355399999D02*
X700999999Y-357899999D01*
X686499999Y-355399999D02*
X693774999Y-355399999D01*
X453999999Y-350399999D02*
X681499999Y-350399999D01*
X681499999Y-350399999D02*
X686499999Y-355399999D01*
X695249999Y-355399999D02*
X698499999Y-355399999D01*
X157499999Y-338449999D02*
X171549999Y-338449999D01*
X700999999Y-357899999D02*
X700999999Y-361899999D01*
X179999999Y-346899999D02*
X438999999Y-346899999D01*
D14*
X693749999Y-355399999D02*
X695249999Y-355399999D01*
D13*
X438999999Y-346899999D02*
X440499999Y-345399999D01*
X171549999Y-338449999D02*
X179999999Y-346899999D01*
X440499999Y-345399999D02*
X448999999Y-345399999D01*
X448999999Y-345399999D02*
X453999999Y-350399999D01*
%TO.N,Net-(J1-Pin_5)*%
X157499999Y-328449999D02*
X168949999Y-328449999D01*
X217999999Y-329399999D02*
X217999999Y-332699999D01*
X177999999Y-319399999D02*
X207999999Y-319399999D01*
X207999999Y-319399999D02*
X217999999Y-329399999D01*
X168949999Y-328449999D02*
X177999999Y-319399999D01*
%TO.N,Net-(J1-Pin_1)*%
X189999999Y-310899999D02*
X189999999Y-307499999D01*
X157499999Y-318449999D02*
X161449999Y-318449999D01*
X183999999Y-313899999D02*
X186999999Y-313899999D01*
X161449999Y-318449999D02*
X165999999Y-313899999D01*
D14*
X182499999Y-313899999D02*
X183999999Y-313899999D01*
D13*
X165999999Y-313899999D02*
X182499999Y-313899999D01*
X186999999Y-313899999D02*
X189999999Y-310899999D01*
%TO.N,Net-(J1-Pin_2)*%
X166999999Y-314899999D02*
X328499999Y-314899999D01*
X157499999Y-320949999D02*
X160949999Y-320949999D01*
X329999999Y-314899999D02*
X331999999Y-314899999D01*
D14*
X328499999Y-314899999D02*
X329999999Y-314899999D01*
D13*
X335999999Y-310899999D02*
X335999999Y-307499999D01*
X160949999Y-320949999D02*
X166999999Y-314899999D01*
X331999999Y-314899999D02*
X335999999Y-310899999D01*
%TO.N,Net-(J1-Pin_3)*%
D14*
X473999999Y-313899999D02*
X475499999Y-313899999D01*
D13*
X431499999Y-316399999D02*
X433999999Y-313899999D01*
X176999999Y-316399999D02*
X431499999Y-316399999D01*
X433999999Y-313899999D02*
X473999999Y-313899999D01*
X475499999Y-313899999D02*
X478999999Y-313899999D01*
X169949999Y-323449999D02*
X176999999Y-316399999D01*
X481999999Y-310899999D02*
X481999999Y-307499999D01*
X157499999Y-323449999D02*
X169949999Y-323449999D01*
X478999999Y-313899999D02*
X481999999Y-310899999D01*
%TO.N,Net-(J1-Pin_4)*%
X627999999Y-311899999D02*
X627999999Y-307499999D01*
X157499999Y-325949999D02*
X169449999Y-325949999D01*
X177499999Y-317899999D02*
X433499999Y-317899999D01*
X169449999Y-325949999D02*
X177499999Y-317899999D01*
X476499999Y-315399999D02*
X616499999Y-315399999D01*
X624499999Y-315399999D02*
X627999999Y-311899999D01*
D14*
X616499999Y-315399999D02*
X617999999Y-315399999D01*
D13*
X617999999Y-315399999D02*
X624499999Y-315399999D01*
X468499999Y-323399999D02*
X476499999Y-315399999D01*
X433499999Y-317899999D02*
X438999999Y-323399999D01*
X438999999Y-323399999D02*
X468499999Y-323399999D01*
%TO.N,Net-(J1-Pin_6)*%
X168949999Y-330949999D02*
X178999999Y-320899999D01*
X157499999Y-330949999D02*
X168949999Y-330949999D01*
X178999999Y-320899999D02*
X198499999Y-320899999D01*
X214299999Y-336699999D02*
X217999999Y-336699999D01*
X198499999Y-320899999D02*
X214299999Y-336699999D01*
%TO.N,Net-(J1-Pin_8)*%
X157499999Y-335949999D02*
X168449999Y-335949999D01*
X476999999Y-321399999D02*
X707999999Y-321399999D01*
X707999999Y-321399999D02*
X723299999Y-336699999D01*
X723299999Y-336699999D02*
X733499999Y-336699999D01*
X214999999Y-341899999D02*
X225499999Y-341899999D01*
X195999999Y-322899999D02*
X214999999Y-341899999D01*
X471499999Y-326899999D02*
X476999999Y-321399999D01*
X168449999Y-335949999D02*
X181499999Y-322899999D01*
X181499999Y-322899999D02*
X195999999Y-322899999D01*
X225499999Y-341899999D02*
X245999999Y-321399999D01*
X431999999Y-326899999D02*
X471499999Y-326899999D01*
X245999999Y-321399999D02*
X426499999Y-321399999D01*
X426499999Y-321399999D02*
X431999999Y-326899999D01*
%TO.N,Net-(J1-Pin_12)*%
X157499999Y-345949999D02*
X165449999Y-345949999D01*
X165999999Y-345399999D02*
X172499999Y-345399999D01*
X172499999Y-345399999D02*
X176999999Y-349899999D01*
X258499999Y-356399999D02*
X260499999Y-356399999D01*
X187499999Y-349899999D02*
X193999999Y-356399999D01*
X260499999Y-356399999D02*
X262999999Y-358899999D01*
X176999999Y-349899999D02*
X187499999Y-349899999D01*
D14*
X256999999Y-356399999D02*
X258499999Y-356399999D01*
D13*
X193999999Y-356399999D02*
X256999999Y-356399999D01*
X262999999Y-358899999D02*
X262999999Y-361899999D01*
X165449999Y-345949999D02*
X165999999Y-345399999D01*
%TD*%
%TA.AperFunction,Conductor*%
%TO.N,Net-(J1-Pin_9)*%
G36*
X701177757Y-359403426D02*
G01*
X701178509Y-359404253D01*
X701994469Y-360393296D01*
X701997091Y-360401859D01*
X701995181Y-360407229D01*
X701009736Y-361886383D01*
X701002297Y-361891368D01*
X700993512Y-361889633D01*
X700990262Y-361886383D01*
X700004816Y-360407229D01*
X700003081Y-360398444D01*
X700005526Y-360393298D01*
X700821489Y-359404252D01*
X700829397Y-359400052D01*
X700830514Y-359399999D01*
X701169484Y-359399999D01*
X701177757Y-359403426D01*
G37*
%TD.AperFunction*%
%TD*%
%TA.AperFunction,Conductor*%
%TO.N,Net-(J1-Pin_11)*%
G36*
X409177757Y-359403426D02*
G01*
X409178509Y-359404253D01*
X409994469Y-360393296D01*
X409997091Y-360401859D01*
X409995181Y-360407229D01*
X409009736Y-361886383D01*
X409002297Y-361891368D01*
X408993512Y-361889633D01*
X408990262Y-361886383D01*
X408004816Y-360407229D01*
X408003081Y-360398444D01*
X408005526Y-360393298D01*
X408821489Y-359404252D01*
X408829397Y-359400052D01*
X408830514Y-359399999D01*
X409169484Y-359399999D01*
X409177757Y-359403426D01*
G37*
%TD.AperFunction*%
%TD*%
%TA.AperFunction,Conductor*%
%TO.N,Net-(J1-Pin_13)*%
G36*
X190177757Y-359403426D02*
G01*
X190178509Y-359404253D01*
X190994469Y-360393296D01*
X190997091Y-360401859D01*
X190995181Y-360407229D01*
X190009736Y-361886383D01*
X190002297Y-361891368D01*
X189993512Y-361889633D01*
X189990262Y-361886383D01*
X189004816Y-360407229D01*
X189003081Y-360398444D01*
X189005526Y-360393298D01*
X189821489Y-359404252D01*
X189829397Y-359400052D01*
X189830514Y-359399999D01*
X190169484Y-359399999D01*
X190177757Y-359403426D01*
G37*
%TD.AperFunction*%
%TD*%
%TA.AperFunction,Conductor*%
%TO.N,Net-(J1-Pin_2)*%
G36*
X336006486Y-307510364D02*
G01*
X336009736Y-307513614D01*
X336995181Y-308992768D01*
X336996916Y-309001553D01*
X336994469Y-309006701D01*
X336178509Y-309995745D01*
X336170601Y-309999946D01*
X336169484Y-309999999D01*
X335830514Y-309999999D01*
X335822241Y-309996572D01*
X335821489Y-309995745D01*
X335005528Y-309006701D01*
X335002906Y-308998138D01*
X335004816Y-308992768D01*
X335990262Y-307513614D01*
X335997701Y-307508629D01*
X336006486Y-307510364D01*
G37*
%TD.AperFunction*%
%TD*%
%TA.AperFunction,Conductor*%
%TO.N,Net-(J1-Pin_1)*%
G36*
X190006486Y-307510364D02*
G01*
X190009736Y-307513614D01*
X190995181Y-308992768D01*
X190996916Y-309001553D01*
X190994469Y-309006701D01*
X190178509Y-309995745D01*
X190170601Y-309999946D01*
X190169484Y-309999999D01*
X189830514Y-309999999D01*
X189822241Y-309996572D01*
X189821489Y-309995745D01*
X189005528Y-309006701D01*
X189002906Y-308998138D01*
X189004816Y-308992768D01*
X189990262Y-307513614D01*
X189997701Y-307508629D01*
X190006486Y-307510364D01*
G37*
%TD.AperFunction*%
%TD*%
%TA.AperFunction,Conductor*%
%TO.N,Net-(J1-Pin_3)*%
G36*
X482006486Y-307510364D02*
G01*
X482009736Y-307513614D01*
X482995181Y-308992768D01*
X482996916Y-309001553D01*
X482994469Y-309006701D01*
X482178509Y-309995745D01*
X482170601Y-309999946D01*
X482169484Y-309999999D01*
X481830514Y-309999999D01*
X481822241Y-309996572D01*
X481821489Y-309995745D01*
X481005528Y-309006701D01*
X481002906Y-308998138D01*
X481004816Y-308992768D01*
X481990262Y-307513614D01*
X481997701Y-307508629D01*
X482006486Y-307510364D01*
G37*
%TD.AperFunction*%
%TD*%
%TA.AperFunction,Conductor*%
%TO.N,Net-(J1-Pin_4)*%
G36*
X628006486Y-307510364D02*
G01*
X628009736Y-307513614D01*
X628995181Y-308992768D01*
X628996916Y-309001553D01*
X628994469Y-309006701D01*
X628178509Y-309995745D01*
X628170601Y-309999946D01*
X628169484Y-309999999D01*
X627830514Y-309999999D01*
X627822241Y-309996572D01*
X627821489Y-309995745D01*
X627005528Y-309006701D01*
X627002906Y-308998138D01*
X627004816Y-308992768D01*
X627990262Y-307513614D01*
X627997701Y-307508629D01*
X628006486Y-307510364D01*
G37*
%TD.AperFunction*%
%TD*%
%TA.AperFunction,Conductor*%
%TO.N,Net-(J1-Pin_12)*%
G36*
X263177757Y-359403426D02*
G01*
X263178509Y-359404253D01*
X263994469Y-360393296D01*
X263997091Y-360401859D01*
X263995181Y-360407229D01*
X263009736Y-361886383D01*
X263002297Y-361891368D01*
X262993512Y-361889633D01*
X262990262Y-361886383D01*
X262004816Y-360407229D01*
X262003081Y-360398444D01*
X262005526Y-360393298D01*
X262821489Y-359404252D01*
X262829397Y-359400052D01*
X262830514Y-359399999D01*
X263169484Y-359399999D01*
X263177757Y-359403426D01*
G37*
%TD.AperFunction*%
%TD*%
%TA.AperFunction,Conductor*%
%TO.N,Net-(J1-Pin_10)*%
G36*
X555177757Y-359403426D02*
G01*
X555178509Y-359404253D01*
X555994469Y-360393296D01*
X555997091Y-360401859D01*
X555995181Y-360407229D01*
X555009736Y-361886383D01*
X555002297Y-361891368D01*
X554993512Y-361889633D01*
X554990262Y-361886383D01*
X554004816Y-360407229D01*
X554003081Y-360398444D01*
X554005526Y-360393298D01*
X554821489Y-359404252D01*
X554829397Y-359400052D01*
X554830514Y-359399999D01*
X555169484Y-359399999D01*
X555177757Y-359403426D01*
G37*
%TD.AperFunction*%
%TD*%
%TA.AperFunction,Conductor*%
%TO.N,Net-(J1-Pin_6)*%
G36*
X216507229Y-335704816D02*
G01*
X217986383Y-336690262D01*
X217991368Y-336697701D01*
X217989633Y-336706486D01*
X217986383Y-336709736D01*
X216507229Y-337695181D01*
X216498444Y-337696916D01*
X216493296Y-337694469D01*
X215504253Y-336878508D01*
X215500052Y-336870600D01*
X215499999Y-336869483D01*
X215499999Y-336530514D01*
X215503426Y-336522241D01*
X215504247Y-336521493D01*
X216493297Y-335705527D01*
X216501859Y-335702906D01*
X216507229Y-335704816D01*
G37*
%TD.AperFunction*%
%TD*%
%TA.AperFunction,Conductor*%
%TO.N,Net-(J1-Pin_5)*%
G36*
X218177757Y-330203426D02*
G01*
X218178509Y-330204253D01*
X218994469Y-331193296D01*
X218997091Y-331201859D01*
X218995181Y-331207229D01*
X218009736Y-332686383D01*
X218002297Y-332691368D01*
X217993512Y-332689633D01*
X217990262Y-332686383D01*
X217004816Y-331207229D01*
X217003081Y-331198444D01*
X217005526Y-331193298D01*
X217821489Y-330204252D01*
X217829397Y-330200052D01*
X217830514Y-330199999D01*
X218169484Y-330199999D01*
X218177757Y-330203426D01*
G37*
%TD.AperFunction*%
%TD*%
%TA.AperFunction,Conductor*%
%TO.N,Net-(J1-Pin_8)*%
G36*
X732007229Y-335704816D02*
G01*
X733486383Y-336690262D01*
X733491368Y-336697701D01*
X733489633Y-336706486D01*
X733486383Y-336709736D01*
X732007229Y-337695181D01*
X731998444Y-337696916D01*
X731993296Y-337694469D01*
X731004253Y-336878508D01*
X731000052Y-336870600D01*
X730999999Y-336869483D01*
X730999999Y-336530514D01*
X731003426Y-336522241D01*
X731004247Y-336521493D01*
X731993297Y-335705527D01*
X732001859Y-335702906D01*
X732007229Y-335704816D01*
G37*
%TD.AperFunction*%
%TD*%
%TA.AperFunction,Conductor*%
%TO.N,Net-(J1-Pin_7)*%
G36*
X732007229Y-331704816D02*
G01*
X733486383Y-332690262D01*
X733491368Y-332697701D01*
X733489633Y-332706486D01*
X733486383Y-332709736D01*
X732007229Y-333695181D01*
X731998444Y-333696916D01*
X731993296Y-333694469D01*
X731004253Y-332878508D01*
X731000052Y-332870600D01*
X730999999Y-332869483D01*
X730999999Y-332530514D01*
X731003426Y-332522241D01*
X731004247Y-332521493D01*
X731993297Y-331705527D01*
X732001859Y-331702906D01*
X732007229Y-331704816D01*
G37*
%TD.AperFunction*%
%TD*%
%TA.AperFunction,Conductor*%
%TO.N,Net-(J1-Pin_14)*%
G36*
X177007230Y-352904816D02*
G01*
X178486384Y-353890262D01*
X178491369Y-353897701D01*
X178489634Y-353906486D01*
X178486384Y-353909736D01*
X177007230Y-354895181D01*
X176998445Y-354896916D01*
X176993297Y-354894469D01*
X176004254Y-354078508D01*
X176000053Y-354070600D01*
X176000000Y-354069483D01*
X176000000Y-353730514D01*
X176003427Y-353722241D01*
X176004248Y-353721493D01*
X176993298Y-352905527D01*
X177001860Y-352902906D01*
X177007230Y-352904816D01*
G37*
%TD.AperFunction*%
%TD*%
M02*
