M48
; DRILL file KiCad 10.0.3 date 2026-06-02T09:24:10
; FORMAT={-:-/ absolute / metric / decimal}
; #@! TF.CreationDate,2026-06-02T09:24:10+05:30
; #@! TF.GenerationSoftware,Kicad,Pcbnew,10.0.3
; #@! TF.FileFunction,Plated,1,2,PTH
FMAT,2
METRIC
; #@! TA.AperFunction,Plated,PTH,ComponentDrill
T1C0.950
; #@! TA.AperFunction,Plated,PTH,ComponentDrill
T2C1.000
%
G90
G05
T1
X157.5Y-318.45
X157.5Y-320.95
X157.5Y-323.45
X157.5Y-325.95
X157.5Y-328.45
X157.5Y-330.95
X157.5Y-333.45
X157.5Y-335.95
X157.5Y-338.45
X157.5Y-340.95
X157.5Y-343.45
X157.5Y-345.95
X157.5Y-348.45
X157.5Y-350.95
T2
X178.5Y-353.9
X190.0Y-307.5
X190.0Y-361.9
X218.0Y-332.7
X218.0Y-336.7
X263.0Y-361.9
X336.0Y-307.5
X409.0Y-361.9
X482.0Y-307.5
X555.0Y-361.9
X628.0Y-307.5
X701.0Y-361.9
X733.5Y-332.7
X733.5Y-336.7
M30
