%TF.GenerationSoftware,KiCad,Pcbnew,10.0.3*%
%TF.CreationDate,2026-06-02T09:24:13+05:30*%
%TF.ProjectId,Nunam_Cell_Harness,4e756e61-6d5f-4436-956c-6c5f4861726e,1v0*%
%TF.SameCoordinates,Original*%
%TF.FileFunction,Soldermask,Top*%
%TF.FilePolarity,Negative*%
%FSLAX46Y46*%
G04 Gerber Fmt 4.6, Leading zero omitted, Abs format (unit mm)*
G04 Created by KiCad (PCBNEW 10.0.3) date 2026-06-02 09:24:13*
%MOMM*%
%LPD*%
G01*
G04 APERTURE LIST*
G04 Aperture macros list*
%AMRoundRect*
0 Rectangle with rounded corners*
0 $1 Rounding radius*
0 $2 $3 $4 $5 $6 $7 $8 $9 X,Y pos of 4 corners*
0 Add a 4 corners polygon primitive as box body*
4,1,4,$2,$3,$4,$5,$6,$7,$8,$9,$2,$3,0*
0 Add four circle primitives for the rounded corners*
1,1,$1+$1,$2,$3*
1,1,$1+$1,$4,$5*
1,1,$1+$1,$6,$7*
1,1,$1+$1,$8,$9*
0 Add four rect primitives between the rounded corners*
20,1,$1+$1,$2,$3,$4,$5,0*
20,1,$1+$1,$4,$5,$6,$7,0*
20,1,$1+$1,$6,$7,$8,$9,0*
20,1,$1+$1,$8,$9,$2,$3,0*%
G04 Aperture macros list end*
%ADD10C,0.100000*%
%ADD11RoundRect,0.450000X-1.050000X-1.050000X1.050000X-1.050000X1.050000X1.050000X-1.050000X1.050000X0*%
%ADD12RoundRect,0.250000X-0.725000X0.600000X-0.725000X-0.600000X0.725000X-0.600000X0.725000X0.600000X0*%
%ADD13O,1.950000X1.700000*%
G04 APERTURE END LIST*
D10*
X167499999Y-354899999D02*
X168999999Y-354899999D01*
X168999999Y-355899999D01*
X167499999Y-355899999D01*
X167499999Y-354899999D01*
G36*
X167499999Y-354899999D02*
G01*
X168999999Y-354899999D01*
X168999999Y-355899999D01*
X167499999Y-355899999D01*
X167499999Y-354899999D01*
G37*
X182499999Y-313399999D02*
X183999999Y-313399999D01*
X183999999Y-314399999D01*
X182499999Y-314399999D01*
X182499999Y-313399999D01*
G36*
X182499999Y-313399999D02*
G01*
X183999999Y-313399999D01*
X183999999Y-314399999D01*
X182499999Y-314399999D01*
X182499999Y-313399999D01*
G37*
X189499999Y-356399999D02*
X190499999Y-356399999D01*
X190499999Y-357899999D01*
X189499999Y-357899999D01*
X189499999Y-356399999D01*
G36*
X189499999Y-356399999D02*
G01*
X190499999Y-356399999D01*
X190499999Y-357899999D01*
X189499999Y-357899999D01*
X189499999Y-356399999D01*
G37*
X256999999Y-355899999D02*
X258499999Y-355899999D01*
X258499999Y-356899999D01*
X256999999Y-356899999D01*
X256999999Y-355899999D01*
G36*
X256999999Y-355899999D02*
G01*
X258499999Y-355899999D01*
X258499999Y-356899999D01*
X256999999Y-356899999D01*
X256999999Y-355899999D01*
G37*
X328499999Y-314399999D02*
X329999999Y-314399999D01*
X329999999Y-315399999D01*
X328499999Y-315399999D01*
X328499999Y-314399999D01*
G36*
X328499999Y-314399999D02*
G01*
X329999999Y-314399999D01*
X329999999Y-315399999D01*
X328499999Y-315399999D01*
X328499999Y-314399999D01*
G37*
X401999999Y-355399999D02*
X403499999Y-355399999D01*
X403499999Y-356399999D01*
X401999999Y-356399999D01*
X401999999Y-355399999D01*
G36*
X401999999Y-355399999D02*
G01*
X403499999Y-355399999D01*
X403499999Y-356399999D01*
X401999999Y-356399999D01*
X401999999Y-355399999D01*
G37*
X473999999Y-313399999D02*
X475499999Y-313399999D01*
X475499999Y-314399999D01*
X473999999Y-314399999D01*
X473999999Y-313399999D01*
G36*
X473999999Y-313399999D02*
G01*
X475499999Y-313399999D01*
X475499999Y-314399999D01*
X473999999Y-314399999D01*
X473999999Y-313399999D01*
G37*
X546999999Y-354899999D02*
X548499999Y-354899999D01*
X548499999Y-355899999D01*
X546999999Y-355899999D01*
X546999999Y-354899999D01*
G36*
X546999999Y-354899999D02*
G01*
X548499999Y-354899999D01*
X548499999Y-355899999D01*
X546999999Y-355899999D01*
X546999999Y-354899999D01*
G37*
X616499999Y-314899999D02*
X617999999Y-314899999D01*
X617999999Y-315899999D01*
X616499999Y-315899999D01*
X616499999Y-314899999D01*
G36*
X616499999Y-314899999D02*
G01*
X617999999Y-314899999D01*
X617999999Y-315899999D01*
X616499999Y-315899999D01*
X616499999Y-314899999D01*
G37*
X693749999Y-354899999D02*
X695249999Y-354899999D01*
X695249999Y-355899999D01*
X693749999Y-355899999D01*
X693749999Y-354899999D01*
G36*
X693749999Y-354899999D02*
G01*
X695249999Y-354899999D01*
X695249999Y-355899999D01*
X693749999Y-355899999D01*
X693749999Y-354899999D01*
G37*
D11*
%TO.C,J15*%
X733499999Y-332699999D03*
%TD*%
%TO.C,J3*%
X189999999Y-361899999D03*
%TD*%
%TO.C,J7*%
X408999999Y-361899999D03*
%TD*%
%TO.C,J2*%
X178500000Y-353899999D03*
%TD*%
%TO.C,J9*%
X554999999Y-361899999D03*
%TD*%
%TO.C,J11*%
X700999999Y-361899999D03*
%TD*%
%TO.C,J12*%
X217999999Y-332699999D03*
%TD*%
D12*
%TO.C,J1*%
X157499999Y-318449999D03*
D13*
X157499999Y-320949999D03*
X157499999Y-323449999D03*
X157499999Y-325949999D03*
X157499999Y-328449999D03*
X157499999Y-330949999D03*
X157499999Y-333449999D03*
X157499999Y-335949999D03*
X157499999Y-338449999D03*
X157499999Y-340949999D03*
X157499999Y-343449999D03*
X157499999Y-345949999D03*
X157499999Y-348449999D03*
X157499999Y-350949999D03*
%TD*%
D11*
%TO.C,J4*%
X189999999Y-307499999D03*
%TD*%
%TO.C,J6*%
X335999999Y-307499999D03*
%TD*%
%TO.C,J13*%
X217999999Y-336699999D03*
%TD*%
%TO.C,J10*%
X627999999Y-307499999D03*
%TD*%
%TO.C,J8*%
X481999999Y-307499999D03*
%TD*%
%TO.C,J14*%
X733499999Y-336699999D03*
%TD*%
%TO.C,J5*%
X262999999Y-361899999D03*
%TD*%
M02*
